<svg xmlns="http://www.w3.org/2000/svg" width="64" height="64" viewBox="0 0 64 64"><rect x="3" y="3" width="58" height="58" rx="14" fill="#0A0E16"/><path d="M20 16 a4 4 0 0 1 4 -4 H42 L52 22 V50 a4 4 0 0 1 -4 4 H24 a4 4 0 0 1 -4 -4 Z" fill="#FFFFFF"/><path d="M42 12 L52 22 L42 22 Z" fill="#C9D3DE"/><rect x="25" y="24" width="18" height="3.6" rx="1.8" fill="#94A3B8"/><rect x="25" y="33" width="20" height="3.6" rx="1.8" fill="#16C088"/><rect x="25" y="42" width="12" height="3.6" rx="1.8" fill="#94A3B8"/><path d="M42 30 H50 M46 30 V40 M42 40 H50" fill="none" stroke="#16C088" stroke-width="2.4" stroke-linecap="round"/></svg>