<svg xmlns="http://www.w3.org/2000/svg" width="64" height="64" viewBox="0 0 64 64"><path d="M14 11 a5 5 0 0 1 5 -5 H39 L50 17 V53 a5 5 0 0 1 -5 5 H19 a5 5 0 0 1 -5 -5 Z" fill="#FFFFFF" stroke="#94A3B8" stroke-width="1.6"/><path d="M39 6 L50 17 L39 17 Z" fill="#E2E8F0" stroke="#94A3B8" stroke-width="1"/><rect x="20" y="21" width="18" height="2.4" rx="1.2" fill="#94A3B8"/><rect x="20" y="27" width="22" height="2.4" rx="1.2" fill="#94A3B8"/><rect x="20" y="33" width="16" height="6" rx="1" fill="#BFEFF4"/><rect x="20" y="35" width="16" height="2.4" rx="1.2" fill="#7E8B9C"/><path d="M35 33 H41 M38 33 V41 M35 41 H41" fill="none" stroke="#0A9D6A" stroke-width="2" stroke-linecap="round"/><rect x="20" y="45" width="12" height="2.4" rx="1.2" fill="#94A3B8"/></svg>
