<svg xmlns="http://www.w3.org/2000/svg" width="123" height="132" viewBox="0 0 123 132"><g transform="translate(33.5 8) scale(0.875)"><path d="M14 11 a5 5 0 0 1 5 -5 H39 L50 17 V53 a5 5 0 0 1 -5 5 H19 a5 5 0 0 1 -5 -5 Z" fill="#FFFFFF" stroke="#94A3B8" stroke-width="1.6"/><path d="M39 6 L50 17 L39 17 Z" fill="#E2E8F0" stroke="#94A3B8" stroke-width="1"/><rect x="20" y="21" width="18" height="2.4" rx="1.2" fill="#94A3B8"/><rect x="20" y="27" width="22" height="2.4" rx="1.2" fill="#94A3B8"/><rect x="20" y="33" width="16" height="6" rx="1" fill="#BFEFF4"/><rect x="20" y="35" width="16" height="2.4" rx="1.2" fill="#7E8B9C"/><path d="M35 33 H41 M38 33 V41 M35 41 H41" fill="none" stroke="#11A877" stroke-width="2" stroke-linecap="round"/><rect x="20" y="45" width="12" height="2.4" rx="1.2" fill="#94A3B8"/></g><path transform="matrix(0.026 0 0 -0.026 7.901000000000003 122)" d="M334 -14Q253 -14 188.5 23.5Q124 61 86.5 135.5Q49 210 49 323Q49 406 70.5 470.5Q92 535 133.5 580.5Q175 626 236.0 650.0Q297 674 377 674Q437 674 486.0 660.0Q535 646 571.0 620.0Q607 594 627.5 557.5Q648 521 650 475L514 433Q512 475 492.5 502.0Q473 529 441.5 542.5Q410 556 371 556Q317 556 278.5 531.5Q240 507 220.0 456.5Q200 406 200 329Q200 270 211.5 227.5Q223 185 246.0 157.0Q269 129 301.0 115.5Q333 102 375 102Q419 102 451.5 116.5Q484 131 503.5 161.5Q523 192 525 239H400V343H667V222V0H567L569 169H551Q535 109 508.0 68.5Q481 28 438.5 7.0Q396 -14 334 -14Z" fill="#14181F"/><path transform="matrix(0.026 0 0 -0.026 26.647000000000002 122)" d="M66 0V525H210V0ZM139 604Q97 604 74.5 621.5Q52 639 52 673Q52 708 74.5 726.0Q97 744 139 744Q182 744 204.5 726.0Q227 708 227 673Q227 640 204.5 622.0Q182 604 139 604Z" fill="#14181F"/><path transform="matrix(0.026 0 0 -0.026 33.849000000000004 122)" d="M274 -183Q188 -183 132.5 -169.5Q77 -156 51.0 -130.0Q25 -104 25 -65Q25 -19 61.5 10.0Q98 39 169 45V65Q115 65 86.0 76.5Q57 88 57 117Q57 145 85.5 167.0Q114 189 180 202V222Q118 226 83.0 262.0Q48 298 48 355Q48 405 76.0 444.5Q104 484 159.5 507.5Q215 531 296 531H562V421L397 444V421Q461 412 489.5 389.0Q518 366 518 325Q518 284 491.0 253.0Q464 222 414.5 204.5Q365 187 296 187Q283 187 268.0 188.0Q253 189 218 193Q199 179 188.5 168.5Q178 158 178 149Q178 142 185.5 137.0Q193 132 205.5 130.0Q218 128 231 128H381Q401 128 433.0 125.5Q465 123 497.0 110.0Q529 97 551.0 68.5Q573 40 573 -13Q573 -71 540.5 -109.0Q508 -147 441.5 -165.0Q375 -183 274 -183ZM290 -68Q351 -68 385.0 -61.5Q419 -55 433.5 -40.5Q448 -26 448 -4Q448 16 439.5 27.0Q431 38 417.5 42.5Q404 47 390.5 48.5Q377 50 367 50H241Q199 46 180.5 27.5Q162 9 162 -15Q162 -37 176.0 -48.0Q190 -59 218.5 -63.5Q247 -68 290 -68ZM288 262Q336 262 360.0 285.5Q384 309 384 347Q384 387 359.5 413.0Q335 439 288 439Q242 439 216.0 413.5Q190 388 190 348Q190 323 201.5 303.5Q213 284 235.0 273.0Q257 262 288 262Z" fill="#14181F"/><path transform="matrix(0.026 0 0 -0.026 49.475 122)" d="M189 -14Q145 -14 111.0 3.5Q77 21 58.0 54.0Q39 87 39 136Q39 179 55.5 208.0Q72 237 104.0 255.0Q136 273 183.0 285.0Q230 297 290 306Q322 311 342.5 315.5Q363 320 373.0 330.5Q383 341 383 361Q383 389 363.0 409.0Q343 429 300 429Q271 429 246.5 419.0Q222 409 204.5 389.0Q187 369 179 338L52 377Q64 418 86.5 448.0Q109 478 141.0 498.5Q173 519 214.0 529.0Q255 539 303 539Q380 539 428.5 514.5Q477 490 501.0 438.5Q525 387 525 306V216Q525 181 526.5 145.0Q528 109 530.5 72.5Q533 36 536 0H409Q405 25 401.5 57.5Q398 90 396 123H378Q364 85 338.0 54.0Q312 23 274.5 4.5Q237 -14 189 -14ZM250 90Q269 90 288.5 97.0Q308 104 326.5 116.5Q345 129 360.5 148.0Q376 167 386 191L384 275L407 270Q389 257 365.0 249.5Q341 242 315.5 238.0Q290 234 265.0 229.0Q240 224 220.5 216.0Q201 208 189.5 194.5Q178 181 178 157Q178 126 198.0 108.0Q218 90 250 90Z" fill="#14181F"/><path transform="matrix(0.026 0 0 -0.026 64.685 122)" d="M174 186V299H325Q397 299 433.0 328.5Q469 358 469 426Q469 486 435.5 517.5Q402 549 332 549H174V660H336Q400 660 451.5 645.0Q503 630 539.5 600.5Q576 571 595.0 526.5Q614 482 614 422Q614 345 579.0 292.5Q544 240 475.5 213.0Q407 186 305 186ZM73 0V660H217V0Z" fill="#0A9D6A"/><path transform="matrix(0.026 0 0 -0.026 81.481 122)" d="M142 0V117H334Q390 117 427.0 141.5Q464 166 483.0 213.0Q502 260 502 328Q502 384 490.0 424.5Q478 465 454.5 491.0Q431 517 395.5 530.0Q360 543 312 543H142V660H307Q427 660 503.0 621.0Q579 582 615.0 509.5Q651 437 651 336Q651 260 633.0 204.0Q615 148 584.5 109.0Q554 70 514.0 46.0Q474 22 429.0 11.0Q384 0 338 0ZM73 0V660H217V0Z" fill="#0A9D6A"/><path transform="matrix(0.026 0 0 -0.026 99.681 122)" d="M73 0V660H217V0ZM142 247V365H527V247ZM142 537V660H564V537Z" fill="#0A9D6A"/></svg>