<svg xmlns="http://www.w3.org/2000/svg" width="1200" height="630" viewBox="0 0 1200 630"><rect width="1200" height="630" fill="#0A0E16"/><g opacity="0.7"><circle cx="40" cy="40" r="1.4" fill="#1b2636"/><circle cx="74" cy="40" r="1.4" fill="#1b2636"/><circle cx="108" cy="40" r="1.4" fill="#1b2636"/><circle cx="142" cy="40" r="1.4" fill="#1b2636"/><circle cx="176" cy="40" r="1.4" fill="#1b2636"/><circle cx="210" cy="40" r="1.4" fill="#1b2636"/><circle cx="244" cy="40" r="1.4" fill="#1b2636"/><circle cx="278" cy="40" r="1.4" fill="#1b2636"/><circle cx="312" cy="40" r="1.4" fill="#1b2636"/><circle cx="346" cy="40" r="1.4" fill="#1b2636"/><circle cx="380" cy="40" r="1.4" fill="#1b2636"/><circle cx="414" cy="40" r="1.4" fill="#1b2636"/><circle cx="448" cy="40" r="1.4" fill="#1b2636"/><circle cx="482" cy="40" r="1.4" fill="#1b2636"/><circle cx="516" cy="40" r="1.4" fill="#1b2636"/><circle cx="550" cy="40" r="1.4" fill="#1b2636"/><circle cx="584" cy="40" r="1.4" fill="#1b2636"/><circle cx="618" cy="40" r="1.4" fill="#1b2636"/><circle cx="652" cy="40" r="1.4" fill="#1b2636"/><circle cx="686" cy="40" r="1.4" fill="#1b2636"/><circle cx="720" cy="40" r="1.4" fill="#1b2636"/><circle cx="754" cy="40" r="1.4" fill="#1b2636"/><circle cx="788" cy="40" r="1.4" fill="#1b2636"/><circle cx="822" cy="40" r="1.4" fill="#1b2636"/><circle cx="856" cy="40" r="1.4" fill="#1b2636"/><circle cx="890" cy="40" r="1.4" fill="#1b2636"/><circle cx="924" cy="40" r="1.4" fill="#1b2636"/><circle cx="958" cy="40" r="1.4" fill="#1b2636"/><circle cx="992" cy="40" r="1.4" fill="#1b2636"/><circle cx="1026" cy="40" r="1.4" fill="#1b2636"/><circle cx="1060" cy="40" r="1.4" fill="#1b2636"/><circle cx="1094" cy="40" r="1.4" fill="#1b2636"/><circle cx="1128" cy="40" r="1.4" fill="#1b2636"/><circle cx="1162" cy="40" r="1.4" fill="#1b2636"/><circle cx="1196" cy="40" r="1.4" fill="#1b2636"/><circle cx="40" cy="74" r="1.4" fill="#1b2636"/><circle cx="74" cy="74" r="1.4" fill="#1b2636"/><circle cx="108" cy="74" r="1.4" fill="#1b2636"/><circle cx="142" cy="74" r="1.4" fill="#1b2636"/><circle cx="176" cy="74" r="1.4" fill="#1b2636"/><circle cx="210" cy="74" r="1.4" fill="#1b2636"/><circle cx="244" cy="74" r="1.4" fill="#1b2636"/><circle cx="278" cy="74" r="1.4" fill="#1b2636"/><circle cx="312" cy="74" r="1.4" fill="#1b2636"/><circle cx="346" cy="74" r="1.4" fill="#1b2636"/><circle cx="380" cy="74" r="1.4" fill="#1b2636"/><circle cx="414" cy="74" r="1.4" fill="#1b2636"/><circle cx="448" cy="74" r="1.4" fill="#1b2636"/><circle cx="482" cy="74" r="1.4" fill="#1b2636"/><circle cx="516" cy="74" r="1.4" fill="#1b2636"/><circle cx="550" cy="74" r="1.4" fill="#1b2636"/><circle cx="584" cy="74" r="1.4" fill="#1b2636"/><circle cx="618" cy="74" r="1.4" fill="#1b2636"/><circle cx="652" cy="74" r="1.4" fill="#1b2636"/><circle cx="686" cy="74" r="1.4" fill="#1b2636"/><circle cx="720" cy="74" r="1.4" fill="#1b2636"/><circle cx="754" cy="74" r="1.4" fill="#1b2636"/><circle cx="788" cy="74" r="1.4" fill="#1b2636"/><circle cx="822" cy="74" r="1.4" fill="#1b2636"/><circle cx="856" cy="74" r="1.4" fill="#1b2636"/><circle cx="890" cy="74" r="1.4" fill="#1b2636"/><circle cx="924" cy="74" r="1.4" fill="#1b2636"/><circle cx="958" cy="74" r="1.4" fill="#1b2636"/><circle cx="992" cy="74" r="1.4" fill="#1b2636"/><circle cx="1026" cy="74" r="1.4" fill="#1b2636"/><circle cx="1060" cy="74" r="1.4" fill="#1b2636"/><circle cx="1094" cy="74" r="1.4" fill="#1b2636"/><circle cx="1128" cy="74" r="1.4" fill="#1b2636"/><circle cx="1162" cy="74" r="1.4" fill="#1b2636"/><circle cx="1196" cy="74" r="1.4" fill="#1b2636"/><circle cx="40" cy="108" r="1.4" fill="#1b2636"/><circle cx="74" cy="108" r="1.4" fill="#1b2636"/><circle cx="108" cy="108" r="1.4" fill="#1b2636"/><circle cx="142" cy="108" r="1.4" fill="#1b2636"/><circle cx="176" cy="108" r="1.4" fill="#1b2636"/><circle cx="210" cy="108" r="1.4" fill="#1b2636"/><circle cx="244" cy="108" r="1.4" fill="#1b2636"/><circle cx="278" cy="108" r="1.4" fill="#1b2636"/><circle cx="312" cy="108" r="1.4" fill="#1b2636"/><circle cx="346" cy="108" r="1.4" fill="#1b2636"/><circle cx="380" cy="108" r="1.4" fill="#1b2636"/><circle cx="414" cy="108" r="1.4" fill="#1b2636"/><circle cx="448" cy="108" r="1.4" fill="#1b2636"/><circle cx="482" cy="108" r="1.4" fill="#1b2636"/><circle cx="516" cy="108" r="1.4" fill="#1b2636"/><circle cx="550" cy="108" r="1.4" fill="#1b2636"/><circle cx="584" cy="108" r="1.4" fill="#1b2636"/><circle cx="618" cy="108" r="1.4" fill="#1b2636"/><circle cx="652" cy="108" r="1.4" fill="#1b2636"/><circle cx="686" cy="108" r="1.4" fill="#1b2636"/><circle cx="720" cy="108" r="1.4" fill="#1b2636"/><circle cx="754" cy="108" r="1.4" fill="#1b2636"/><circle cx="788" cy="108" r="1.4" fill="#1b2636"/><circle cx="822" cy="108" r="1.4" fill="#1b2636"/><circle cx="856" cy="108" r="1.4" fill="#1b2636"/><circle cx="890" cy="108" r="1.4" fill="#1b2636"/><circle cx="924" cy="108" r="1.4" fill="#1b2636"/><circle cx="958" cy="108" r="1.4" fill="#1b2636"/><circle cx="992" cy="108" r="1.4" fill="#1b2636"/><circle cx="1026" cy="108" r="1.4" fill="#1b2636"/><circle cx="1060" cy="108" r="1.4" fill="#1b2636"/><circle cx="1094" cy="108" r="1.4" fill="#1b2636"/><circle cx="1128" cy="108" r="1.4" fill="#1b2636"/><circle cx="1162" cy="108" r="1.4" fill="#1b2636"/><circle cx="1196" cy="108" r="1.4" fill="#1b2636"/><circle cx="40" cy="142" r="1.4" fill="#1b2636"/><circle cx="74" cy="142" r="1.4" fill="#1b2636"/><circle cx="108" cy="142" r="1.4" fill="#1b2636"/><circle cx="142" cy="142" r="1.4" fill="#1b2636"/><circle cx="176" cy="142" r="1.4" fill="#1b2636"/><circle cx="210" cy="142" r="1.4" fill="#1b2636"/><circle cx="244" cy="142" r="1.4" fill="#1b2636"/><circle cx="278" cy="142" r="1.4" fill="#1b2636"/><circle cx="312" cy="142" r="1.4" fill="#1b2636"/><circle cx="346" cy="142" r="1.4" fill="#1b2636"/><circle cx="380" cy="142" r="1.4" fill="#1b2636"/><circle cx="414" cy="142" r="1.4" fill="#1b2636"/><circle cx="448" cy="142" r="1.4" fill="#1b2636"/><circle cx="482" cy="142" r="1.4" fill="#1b2636"/><circle cx="516" cy="142" r="1.4" fill="#1b2636"/><circle cx="550" cy="142" r="1.4" fill="#1b2636"/><circle cx="584" cy="142" r="1.4" fill="#1b2636"/><circle cx="618" cy="142" r="1.4" fill="#1b2636"/><circle cx="652" cy="142" r="1.4" fill="#1b2636"/><circle cx="686" cy="142" r="1.4" fill="#1b2636"/><circle cx="720" cy="142" r="1.4" fill="#1b2636"/><circle cx="754" cy="142" r="1.4" fill="#1b2636"/><circle cx="788" cy="142" r="1.4" fill="#1b2636"/><circle cx="822" cy="142" r="1.4" fill="#1b2636"/><circle cx="856" cy="142" r="1.4" fill="#1b2636"/><circle cx="890" cy="142" r="1.4" fill="#1b2636"/><circle cx="924" cy="142" r="1.4" fill="#1b2636"/><circle cx="958" cy="142" r="1.4" fill="#1b2636"/><circle cx="992" cy="142" r="1.4" fill="#1b2636"/><circle cx="1026" cy="142" r="1.4" fill="#1b2636"/><circle cx="1060" cy="142" r="1.4" fill="#1b2636"/><circle cx="1094" cy="142" r="1.4" fill="#1b2636"/><circle cx="1128" cy="142" r="1.4" fill="#1b2636"/><circle cx="1162" cy="142" r="1.4" fill="#1b2636"/><circle cx="1196" cy="142" r="1.4" fill="#1b2636"/><circle cx="40" cy="176" r="1.4" fill="#1b2636"/><circle cx="74" cy="176" r="1.4" fill="#1b2636"/><circle cx="108" cy="176" r="1.4" fill="#1b2636"/><circle cx="142" cy="176" r="1.4" fill="#1b2636"/><circle cx="176" cy="176" r="1.4" fill="#1b2636"/><circle cx="210" cy="176" r="1.4" fill="#1b2636"/><circle cx="244" cy="176" r="1.4" fill="#1b2636"/><circle cx="278" cy="176" r="1.4" fill="#1b2636"/><circle cx="312" cy="176" r="1.4" fill="#1b2636"/><circle cx="346" cy="176" r="1.4" fill="#1b2636"/><circle cx="380" cy="176" r="1.4" fill="#1b2636"/><circle cx="414" cy="176" r="1.4" fill="#1b2636"/><circle cx="448" cy="176" r="1.4" fill="#1b2636"/><circle cx="482" cy="176" r="1.4" fill="#1b2636"/><circle cx="516" cy="176" r="1.4" fill="#1b2636"/><circle cx="550" cy="176" r="1.4" fill="#1b2636"/><circle cx="584" cy="176" r="1.4" fill="#1b2636"/><circle cx="618" cy="176" r="1.4" fill="#1b2636"/><circle cx="652" cy="176" r="1.4" fill="#1b2636"/><circle cx="686" cy="176" r="1.4" fill="#1b2636"/><circle cx="720" cy="176" r="1.4" fill="#1b2636"/><circle cx="754" cy="176" r="1.4" fill="#1b2636"/><circle cx="788" cy="176" r="1.4" fill="#1b2636"/><circle cx="822" cy="176" r="1.4" fill="#1b2636"/><circle cx="856" cy="176" r="1.4" fill="#1b2636"/><circle cx="890" cy="176" r="1.4" fill="#1b2636"/><circle cx="924" cy="176" r="1.4" fill="#1b2636"/><circle cx="958" cy="176" r="1.4" fill="#1b2636"/><circle cx="992" cy="176" r="1.4" fill="#1b2636"/><circle cx="1026" cy="176" r="1.4" fill="#1b2636"/><circle cx="1060" cy="176" r="1.4" fill="#1b2636"/><circle cx="1094" cy="176" r="1.4" fill="#1b2636"/><circle cx="1128" cy="176" r="1.4" fill="#1b2636"/><circle cx="1162" cy="176" r="1.4" fill="#1b2636"/><circle cx="1196" cy="176" r="1.4" fill="#1b2636"/><circle cx="40" cy="210" r="1.4" fill="#1b2636"/><circle cx="74" cy="210" r="1.4" fill="#1b2636"/><circle cx="108" cy="210" r="1.4" fill="#1b2636"/><circle cx="142" cy="210" r="1.4" fill="#1b2636"/><circle cx="176" cy="210" r="1.4" fill="#1b2636"/><circle cx="210" cy="210" r="1.4" fill="#1b2636"/><circle cx="244" cy="210" r="1.4" fill="#1b2636"/><circle cx="278" cy="210" r="1.4" fill="#1b2636"/><circle cx="312" cy="210" r="1.4" fill="#1b2636"/><circle cx="346" cy="210" r="1.4" fill="#1b2636"/><circle cx="380" cy="210" r="1.4" fill="#1b2636"/><circle cx="414" cy="210" r="1.4" fill="#1b2636"/><circle cx="448" cy="210" r="1.4" fill="#1b2636"/><circle cx="482" cy="210" r="1.4" fill="#1b2636"/><circle cx="516" cy="210" r="1.4" fill="#1b2636"/><circle cx="550" cy="210" r="1.4" fill="#1b2636"/><circle cx="584" cy="210" r="1.4" fill="#1b2636"/><circle cx="618" cy="210" r="1.4" fill="#1b2636"/><circle cx="652" cy="210" r="1.4" fill="#1b2636"/><circle cx="686" cy="210" r="1.4" fill="#1b2636"/><circle cx="720" cy="210" r="1.4" fill="#1b2636"/><circle cx="754" cy="210" r="1.4" fill="#1b2636"/><circle cx="788" cy="210" r="1.4" fill="#1b2636"/><circle cx="822" cy="210" r="1.4" fill="#1b2636"/><circle cx="856" cy="210" r="1.4" fill="#1b2636"/><circle cx="890" cy="210" r="1.4" fill="#1b2636"/><circle cx="924" cy="210" r="1.4" fill="#1b2636"/><circle cx="958" cy="210" r="1.4" fill="#1b2636"/><circle cx="992" cy="210" r="1.4" fill="#1b2636"/><circle cx="1026" cy="210" r="1.4" fill="#1b2636"/><circle cx="1060" cy="210" r="1.4" fill="#1b2636"/><circle cx="1094" cy="210" r="1.4" fill="#1b2636"/><circle cx="1128" cy="210" r="1.4" fill="#1b2636"/><circle cx="1162" cy="210" r="1.4" fill="#1b2636"/><circle cx="1196" cy="210" r="1.4" fill="#1b2636"/><circle cx="40" cy="244" r="1.4" fill="#1b2636"/><circle cx="74" cy="244" r="1.4" fill="#1b2636"/><circle cx="108" cy="244" r="1.4" fill="#1b2636"/><circle cx="142" cy="244" r="1.4" fill="#1b2636"/><circle cx="176" cy="244" r="1.4" fill="#1b2636"/><circle cx="210" cy="244" r="1.4" fill="#1b2636"/><circle cx="244" cy="244" r="1.4" fill="#1b2636"/><circle cx="278" cy="244" r="1.4" fill="#1b2636"/><circle cx="312" cy="244" r="1.4" fill="#1b2636"/><circle cx="346" cy="244" r="1.4" fill="#1b2636"/><circle cx="380" cy="244" r="1.4" fill="#1b2636"/><circle cx="414" cy="244" r="1.4" fill="#1b2636"/><circle cx="448" cy="244" r="1.4" fill="#1b2636"/><circle cx="482" cy="244" r="1.4" fill="#1b2636"/><circle cx="516" cy="244" r="1.4" fill="#1b2636"/><circle cx="550" cy="244" r="1.4" fill="#1b2636"/><circle cx="584" cy="244" r="1.4" fill="#1b2636"/><circle cx="618" cy="244" r="1.4" fill="#1b2636"/><circle cx="652" cy="244" r="1.4" fill="#1b2636"/><circle cx="686" cy="244" r="1.4" fill="#1b2636"/><circle cx="720" cy="244" r="1.4" fill="#1b2636"/><circle cx="754" cy="244" r="1.4" fill="#1b2636"/><circle cx="788" cy="244" r="1.4" fill="#1b2636"/><circle cx="822" cy="244" r="1.4" fill="#1b2636"/><circle cx="856" cy="244" r="1.4" fill="#1b2636"/><circle cx="890" cy="244" r="1.4" fill="#1b2636"/><circle cx="924" cy="244" r="1.4" fill="#1b2636"/><circle cx="958" cy="244" r="1.4" fill="#1b2636"/><circle cx="992" cy="244" r="1.4" fill="#1b2636"/><circle cx="1026" cy="244" r="1.4" fill="#1b2636"/><circle cx="1060" cy="244" r="1.4" fill="#1b2636"/><circle cx="1094" cy="244" r="1.4" fill="#1b2636"/><circle cx="1128" cy="244" r="1.4" fill="#1b2636"/><circle cx="1162" cy="244" r="1.4" fill="#1b2636"/><circle cx="1196" cy="244" r="1.4" fill="#1b2636"/><circle cx="40" cy="278" r="1.4" fill="#1b2636"/><circle cx="74" cy="278" r="1.4" fill="#1b2636"/><circle cx="108" cy="278" r="1.4" fill="#1b2636"/><circle cx="142" cy="278" r="1.4" fill="#1b2636"/><circle cx="176" cy="278" r="1.4" fill="#1b2636"/><circle cx="210" cy="278" r="1.4" fill="#1b2636"/><circle cx="244" cy="278" r="1.4" fill="#1b2636"/><circle cx="278" cy="278" r="1.4" fill="#1b2636"/><circle cx="312" cy="278" r="1.4" fill="#1b2636"/><circle cx="346" cy="278" r="1.4" fill="#1b2636"/><circle cx="380" cy="278" r="1.4" fill="#1b2636"/><circle cx="414" cy="278" r="1.4" fill="#1b2636"/><circle cx="448" cy="278" r="1.4" fill="#1b2636"/><circle cx="482" cy="278" r="1.4" fill="#1b2636"/><circle cx="516" cy="278" r="1.4" fill="#1b2636"/><circle cx="550" cy="278" r="1.4" fill="#1b2636"/><circle cx="584" cy="278" r="1.4" fill="#1b2636"/><circle cx="618" cy="278" r="1.4" fill="#1b2636"/><circle cx="652" cy="278" r="1.4" fill="#1b2636"/><circle cx="686" cy="278" r="1.4" fill="#1b2636"/><circle cx="720" cy="278" r="1.4" fill="#1b2636"/><circle cx="754" cy="278" r="1.4" fill="#1b2636"/><circle cx="788" cy="278" r="1.4" fill="#1b2636"/><circle cx="822" cy="278" r="1.4" fill="#1b2636"/><circle cx="856" cy="278" r="1.4" fill="#1b2636"/><circle cx="890" cy="278" r="1.4" fill="#1b2636"/><circle cx="924" cy="278" r="1.4" fill="#1b2636"/><circle cx="958" cy="278" r="1.4" fill="#1b2636"/><circle cx="992" cy="278" r="1.4" fill="#1b2636"/><circle cx="1026" cy="278" r="1.4" fill="#1b2636"/><circle cx="1060" cy="278" r="1.4" fill="#1b2636"/><circle cx="1094" cy="278" r="1.4" fill="#1b2636"/><circle cx="1128" cy="278" r="1.4" fill="#1b2636"/><circle cx="1162" cy="278" r="1.4" fill="#1b2636"/><circle cx="1196" cy="278" r="1.4" fill="#1b2636"/><circle cx="40" cy="312" r="1.4" fill="#1b2636"/><circle cx="74" cy="312" r="1.4" fill="#1b2636"/><circle cx="108" cy="312" r="1.4" fill="#1b2636"/><circle cx="142" cy="312" r="1.4" fill="#1b2636"/><circle cx="176" cy="312" r="1.4" fill="#1b2636"/><circle cx="210" cy="312" r="1.4" fill="#1b2636"/><circle cx="244" cy="312" r="1.4" fill="#1b2636"/><circle cx="278" cy="312" r="1.4" fill="#1b2636"/><circle cx="312" cy="312" r="1.4" fill="#1b2636"/><circle cx="346" cy="312" r="1.4" fill="#1b2636"/><circle cx="380" cy="312" r="1.4" fill="#1b2636"/><circle cx="414" cy="312" r="1.4" fill="#1b2636"/><circle cx="448" cy="312" r="1.4" fill="#1b2636"/><circle cx="482" cy="312" r="1.4" fill="#1b2636"/><circle cx="516" cy="312" r="1.4" fill="#1b2636"/><circle cx="550" cy="312" r="1.4" fill="#1b2636"/><circle cx="584" cy="312" r="1.4" fill="#1b2636"/><circle cx="618" cy="312" r="1.4" fill="#1b2636"/><circle cx="652" cy="312" r="1.4" fill="#1b2636"/><circle cx="686" cy="312" r="1.4" fill="#1b2636"/><circle cx="720" cy="312" r="1.4" fill="#1b2636"/><circle cx="754" cy="312" r="1.4" fill="#1b2636"/><circle cx="788" cy="312" r="1.4" fill="#1b2636"/><circle cx="822" cy="312" r="1.4" fill="#1b2636"/><circle cx="856" cy="312" r="1.4" fill="#1b2636"/><circle cx="890" cy="312" r="1.4" fill="#1b2636"/><circle cx="924" cy="312" r="1.4" fill="#1b2636"/><circle cx="958" cy="312" r="1.4" fill="#1b2636"/><circle cx="992" cy="312" r="1.4" fill="#1b2636"/><circle cx="1026" cy="312" r="1.4" fill="#1b2636"/><circle cx="1060" cy="312" r="1.4" fill="#1b2636"/><circle cx="1094" cy="312" r="1.4" fill="#1b2636"/><circle cx="1128" cy="312" r="1.4" fill="#1b2636"/><circle cx="1162" cy="312" r="1.4" fill="#1b2636"/><circle cx="1196" cy="312" r="1.4" fill="#1b2636"/><circle cx="40" cy="346" r="1.4" fill="#1b2636"/><circle cx="74" cy="346" r="1.4" fill="#1b2636"/><circle cx="108" cy="346" r="1.4" fill="#1b2636"/><circle cx="142" cy="346" r="1.4" fill="#1b2636"/><circle cx="176" cy="346" r="1.4" fill="#1b2636"/><circle cx="210" cy="346" r="1.4" fill="#1b2636"/><circle cx="244" cy="346" r="1.4" fill="#1b2636"/><circle cx="278" cy="346" r="1.4" fill="#1b2636"/><circle cx="312" cy="346" r="1.4" fill="#1b2636"/><circle cx="346" cy="346" r="1.4" fill="#1b2636"/><circle cx="380" cy="346" r="1.4" fill="#1b2636"/><circle cx="414" cy="346" r="1.4" fill="#1b2636"/><circle cx="448" cy="346" r="1.4" fill="#1b2636"/><circle cx="482" cy="346" r="1.4" fill="#1b2636"/><circle cx="516" cy="346" r="1.4" fill="#1b2636"/><circle cx="550" cy="346" r="1.4" fill="#1b2636"/><circle cx="584" cy="346" r="1.4" fill="#1b2636"/><circle cx="618" cy="346" r="1.4" fill="#1b2636"/><circle cx="652" cy="346" r="1.4" fill="#1b2636"/><circle cx="686" cy="346" r="1.4" fill="#1b2636"/><circle cx="720" cy="346" r="1.4" fill="#1b2636"/><circle cx="754" cy="346" r="1.4" fill="#1b2636"/><circle cx="788" cy="346" r="1.4" fill="#1b2636"/><circle cx="822" cy="346" r="1.4" fill="#1b2636"/><circle cx="856" cy="346" r="1.4" fill="#1b2636"/><circle cx="890" cy="346" r="1.4" fill="#1b2636"/><circle cx="924" cy="346" r="1.4" fill="#1b2636"/><circle cx="958" cy="346" r="1.4" fill="#1b2636"/><circle cx="992" cy="346" r="1.4" fill="#1b2636"/><circle cx="1026" cy="346" r="1.4" fill="#1b2636"/><circle cx="1060" cy="346" r="1.4" fill="#1b2636"/><circle cx="1094" cy="346" r="1.4" fill="#1b2636"/><circle cx="1128" cy="346" r="1.4" fill="#1b2636"/><circle cx="1162" cy="346" r="1.4" fill="#1b2636"/><circle cx="1196" cy="346" r="1.4" fill="#1b2636"/><circle cx="40" cy="380" r="1.4" fill="#1b2636"/><circle cx="74" cy="380" r="1.4" fill="#1b2636"/><circle cx="108" cy="380" r="1.4" fill="#1b2636"/><circle cx="142" cy="380" r="1.4" fill="#1b2636"/><circle cx="176" cy="380" r="1.4" fill="#1b2636"/><circle cx="210" cy="380" r="1.4" fill="#1b2636"/><circle cx="244" cy="380" r="1.4" fill="#1b2636"/><circle cx="278" cy="380" r="1.4" fill="#1b2636"/><circle cx="312" cy="380" r="1.4" fill="#1b2636"/><circle cx="346" cy="380" r="1.4" fill="#1b2636"/><circle cx="380" cy="380" r="1.4" fill="#1b2636"/><circle cx="414" cy="380" r="1.4" fill="#1b2636"/><circle cx="448" cy="380" r="1.4" fill="#1b2636"/><circle cx="482" cy="380" r="1.4" fill="#1b2636"/><circle cx="516" cy="380" r="1.4" fill="#1b2636"/><circle cx="550" cy="380" r="1.4" fill="#1b2636"/><circle cx="584" cy="380" r="1.4" fill="#1b2636"/><circle cx="618" cy="380" r="1.4" fill="#1b2636"/><circle cx="652" cy="380" r="1.4" fill="#1b2636"/><circle cx="686" cy="380" r="1.4" fill="#1b2636"/><circle cx="720" cy="380" r="1.4" fill="#1b2636"/><circle cx="754" cy="380" r="1.4" fill="#1b2636"/><circle cx="788" cy="380" r="1.4" fill="#1b2636"/><circle cx="822" cy="380" r="1.4" fill="#1b2636"/><circle cx="856" cy="380" r="1.4" fill="#1b2636"/><circle cx="890" cy="380" r="1.4" fill="#1b2636"/><circle cx="924" cy="380" r="1.4" fill="#1b2636"/><circle cx="958" cy="380" r="1.4" fill="#1b2636"/><circle cx="992" cy="380" r="1.4" fill="#1b2636"/><circle cx="1026" cy="380" r="1.4" fill="#1b2636"/><circle cx="1060" cy="380" r="1.4" fill="#1b2636"/><circle cx="1094" cy="380" r="1.4" fill="#1b2636"/><circle cx="1128" cy="380" r="1.4" fill="#1b2636"/><circle cx="1162" cy="380" r="1.4" fill="#1b2636"/><circle cx="1196" cy="380" r="1.4" fill="#1b2636"/><circle cx="40" cy="414" r="1.4" fill="#1b2636"/><circle cx="74" cy="414" r="1.4" fill="#1b2636"/><circle cx="108" cy="414" r="1.4" fill="#1b2636"/><circle cx="142" cy="414" r="1.4" fill="#1b2636"/><circle cx="176" cy="414" r="1.4" fill="#1b2636"/><circle cx="210" cy="414" r="1.4" fill="#1b2636"/><circle cx="244" cy="414" r="1.4" fill="#1b2636"/><circle cx="278" cy="414" r="1.4" fill="#1b2636"/><circle cx="312" cy="414" r="1.4" fill="#1b2636"/><circle cx="346" cy="414" r="1.4" fill="#1b2636"/><circle cx="380" cy="414" r="1.4" fill="#1b2636"/><circle cx="414" cy="414" r="1.4" fill="#1b2636"/><circle cx="448" cy="414" r="1.4" fill="#1b2636"/><circle cx="482" cy="414" r="1.4" fill="#1b2636"/><circle cx="516" cy="414" r="1.4" fill="#1b2636"/><circle cx="550" cy="414" r="1.4" fill="#1b2636"/><circle cx="584" cy="414" r="1.4" fill="#1b2636"/><circle cx="618" cy="414" r="1.4" fill="#1b2636"/><circle cx="652" cy="414" r="1.4" fill="#1b2636"/><circle cx="686" cy="414" r="1.4" fill="#1b2636"/><circle cx="720" cy="414" r="1.4" fill="#1b2636"/><circle cx="754" cy="414" r="1.4" fill="#1b2636"/><circle cx="788" cy="414" r="1.4" fill="#1b2636"/><circle cx="822" cy="414" r="1.4" fill="#1b2636"/><circle cx="856" cy="414" r="1.4" fill="#1b2636"/><circle cx="890" cy="414" r="1.4" fill="#1b2636"/><circle cx="924" cy="414" r="1.4" fill="#1b2636"/><circle cx="958" cy="414" r="1.4" fill="#1b2636"/><circle cx="992" cy="414" r="1.4" fill="#1b2636"/><circle cx="1026" cy="414" r="1.4" fill="#1b2636"/><circle cx="1060" cy="414" r="1.4" fill="#1b2636"/><circle cx="1094" cy="414" r="1.4" fill="#1b2636"/><circle cx="1128" cy="414" r="1.4" fill="#1b2636"/><circle cx="1162" cy="414" r="1.4" fill="#1b2636"/><circle cx="1196" cy="414" r="1.4" fill="#1b2636"/><circle cx="40" cy="448" r="1.4" fill="#1b2636"/><circle cx="74" cy="448" r="1.4" fill="#1b2636"/><circle cx="108" cy="448" r="1.4" fill="#1b2636"/><circle cx="142" cy="448" r="1.4" fill="#1b2636"/><circle cx="176" cy="448" r="1.4" fill="#1b2636"/><circle cx="210" cy="448" r="1.4" fill="#1b2636"/><circle cx="244" cy="448" r="1.4" fill="#1b2636"/><circle cx="278" cy="448" r="1.4" fill="#1b2636"/><circle cx="312" cy="448" r="1.4" fill="#1b2636"/><circle cx="346" cy="448" r="1.4" fill="#1b2636"/><circle cx="380" cy="448" r="1.4" fill="#1b2636"/><circle cx="414" cy="448" r="1.4" fill="#1b2636"/><circle cx="448" cy="448" r="1.4" fill="#1b2636"/><circle cx="482" cy="448" r="1.4" fill="#1b2636"/><circle cx="516" cy="448" r="1.4" fill="#1b2636"/><circle cx="550" cy="448" r="1.4" fill="#1b2636"/><circle cx="584" cy="448" r="1.4" fill="#1b2636"/><circle cx="618" cy="448" r="1.4" fill="#1b2636"/><circle cx="652" cy="448" r="1.4" fill="#1b2636"/><circle cx="686" cy="448" r="1.4" fill="#1b2636"/><circle cx="720" cy="448" r="1.4" fill="#1b2636"/><circle cx="754" cy="448" r="1.4" fill="#1b2636"/><circle cx="788" cy="448" r="1.4" fill="#1b2636"/><circle cx="822" cy="448" r="1.4" fill="#1b2636"/><circle cx="856" cy="448" r="1.4" fill="#1b2636"/><circle cx="890" cy="448" r="1.4" fill="#1b2636"/><circle cx="924" cy="448" r="1.4" fill="#1b2636"/><circle cx="958" cy="448" r="1.4" fill="#1b2636"/><circle cx="992" cy="448" r="1.4" fill="#1b2636"/><circle cx="1026" cy="448" r="1.4" fill="#1b2636"/><circle cx="1060" cy="448" r="1.4" fill="#1b2636"/><circle cx="1094" cy="448" r="1.4" fill="#1b2636"/><circle cx="1128" cy="448" r="1.4" fill="#1b2636"/><circle cx="1162" cy="448" r="1.4" fill="#1b2636"/><circle cx="1196" cy="448" r="1.4" fill="#1b2636"/><circle cx="40" cy="482" r="1.4" fill="#1b2636"/><circle cx="74" cy="482" r="1.4" fill="#1b2636"/><circle cx="108" cy="482" r="1.4" fill="#1b2636"/><circle cx="142" cy="482" r="1.4" fill="#1b2636"/><circle cx="176" cy="482" r="1.4" fill="#1b2636"/><circle cx="210" cy="482" r="1.4" fill="#1b2636"/><circle cx="244" cy="482" r="1.4" fill="#1b2636"/><circle cx="278" cy="482" r="1.4" fill="#1b2636"/><circle cx="312" cy="482" r="1.4" fill="#1b2636"/><circle cx="346" cy="482" r="1.4" fill="#1b2636"/><circle cx="380" cy="482" r="1.4" fill="#1b2636"/><circle cx="414" cy="482" r="1.4" fill="#1b2636"/><circle cx="448" cy="482" r="1.4" fill="#1b2636"/><circle cx="482" cy="482" r="1.4" fill="#1b2636"/><circle cx="516" cy="482" r="1.4" fill="#1b2636"/><circle cx="550" cy="482" r="1.4" fill="#1b2636"/><circle cx="584" cy="482" r="1.4" fill="#1b2636"/><circle cx="618" cy="482" r="1.4" fill="#1b2636"/><circle cx="652" cy="482" r="1.4" fill="#1b2636"/><circle cx="686" cy="482" r="1.4" fill="#1b2636"/><circle cx="720" cy="482" r="1.4" fill="#1b2636"/><circle cx="754" cy="482" r="1.4" fill="#1b2636"/><circle cx="788" cy="482" r="1.4" fill="#1b2636"/><circle cx="822" cy="482" r="1.4" fill="#1b2636"/><circle cx="856" cy="482" r="1.4" fill="#1b2636"/><circle cx="890" cy="482" r="1.4" fill="#1b2636"/><circle cx="924" cy="482" r="1.4" fill="#1b2636"/><circle cx="958" cy="482" r="1.4" fill="#1b2636"/><circle cx="992" cy="482" r="1.4" fill="#1b2636"/><circle cx="1026" cy="482" r="1.4" fill="#1b2636"/><circle cx="1060" cy="482" r="1.4" fill="#1b2636"/><circle cx="1094" cy="482" r="1.4" fill="#1b2636"/><circle cx="1128" cy="482" r="1.4" fill="#1b2636"/><circle cx="1162" cy="482" r="1.4" fill="#1b2636"/><circle cx="1196" cy="482" r="1.4" fill="#1b2636"/><circle cx="40" cy="516" r="1.4" fill="#1b2636"/><circle cx="74" cy="516" r="1.4" fill="#1b2636"/><circle cx="108" cy="516" r="1.4" fill="#1b2636"/><circle cx="142" cy="516" r="1.4" fill="#1b2636"/><circle cx="176" cy="516" r="1.4" fill="#1b2636"/><circle cx="210" cy="516" r="1.4" fill="#1b2636"/><circle cx="244" cy="516" r="1.4" fill="#1b2636"/><circle cx="278" cy="516" r="1.4" fill="#1b2636"/><circle cx="312" cy="516" r="1.4" fill="#1b2636"/><circle cx="346" cy="516" r="1.4" fill="#1b2636"/><circle cx="380" cy="516" r="1.4" fill="#1b2636"/><circle cx="414" cy="516" r="1.4" fill="#1b2636"/><circle cx="448" cy="516" r="1.4" fill="#1b2636"/><circle cx="482" cy="516" r="1.4" fill="#1b2636"/><circle cx="516" cy="516" r="1.4" fill="#1b2636"/><circle cx="550" cy="516" r="1.4" fill="#1b2636"/><circle cx="584" cy="516" r="1.4" fill="#1b2636"/><circle cx="618" cy="516" r="1.4" fill="#1b2636"/><circle cx="652" cy="516" r="1.4" fill="#1b2636"/><circle cx="686" cy="516" r="1.4" fill="#1b2636"/><circle cx="720" cy="516" r="1.4" fill="#1b2636"/><circle cx="754" cy="516" r="1.4" fill="#1b2636"/><circle cx="788" cy="516" r="1.4" fill="#1b2636"/><circle cx="822" cy="516" r="1.4" fill="#1b2636"/><circle cx="856" cy="516" r="1.4" fill="#1b2636"/><circle cx="890" cy="516" r="1.4" fill="#1b2636"/><circle cx="924" cy="516" r="1.4" fill="#1b2636"/><circle cx="958" cy="516" r="1.4" fill="#1b2636"/><circle cx="992" cy="516" r="1.4" fill="#1b2636"/><circle cx="1026" cy="516" r="1.4" fill="#1b2636"/><circle cx="1060" cy="516" r="1.4" fill="#1b2636"/><circle cx="1094" cy="516" r="1.4" fill="#1b2636"/><circle cx="1128" cy="516" r="1.4" fill="#1b2636"/><circle cx="1162" cy="516" r="1.4" fill="#1b2636"/><circle cx="1196" cy="516" r="1.4" fill="#1b2636"/><circle cx="40" cy="550" r="1.4" fill="#1b2636"/><circle cx="74" cy="550" r="1.4" fill="#1b2636"/><circle cx="108" cy="550" r="1.4" fill="#1b2636"/><circle cx="142" cy="550" r="1.4" fill="#1b2636"/><circle cx="176" cy="550" r="1.4" fill="#1b2636"/><circle cx="210" cy="550" r="1.4" fill="#1b2636"/><circle cx="244" cy="550" r="1.4" fill="#1b2636"/><circle cx="278" cy="550" r="1.4" fill="#1b2636"/><circle cx="312" cy="550" r="1.4" fill="#1b2636"/><circle cx="346" cy="550" r="1.4" fill="#1b2636"/><circle cx="380" cy="550" r="1.4" fill="#1b2636"/><circle cx="414" cy="550" r="1.4" fill="#1b2636"/><circle cx="448" cy="550" r="1.4" fill="#1b2636"/><circle cx="482" cy="550" r="1.4" fill="#1b2636"/><circle cx="516" cy="550" r="1.4" fill="#1b2636"/><circle cx="550" cy="550" r="1.4" fill="#1b2636"/><circle cx="584" cy="550" r="1.4" fill="#1b2636"/><circle cx="618" cy="550" r="1.4" fill="#1b2636"/><circle cx="652" cy="550" r="1.4" fill="#1b2636"/><circle cx="686" cy="550" r="1.4" fill="#1b2636"/><circle cx="720" cy="550" r="1.4" fill="#1b2636"/><circle cx="754" cy="550" r="1.4" fill="#1b2636"/><circle cx="788" cy="550" r="1.4" fill="#1b2636"/><circle cx="822" cy="550" r="1.4" fill="#1b2636"/><circle cx="856" cy="550" r="1.4" fill="#1b2636"/><circle cx="890" cy="550" r="1.4" fill="#1b2636"/><circle cx="924" cy="550" r="1.4" fill="#1b2636"/><circle cx="958" cy="550" r="1.4" fill="#1b2636"/><circle cx="992" cy="550" r="1.4" fill="#1b2636"/><circle cx="1026" cy="550" r="1.4" fill="#1b2636"/><circle cx="1060" cy="550" r="1.4" fill="#1b2636"/><circle cx="1094" cy="550" r="1.4" fill="#1b2636"/><circle cx="1128" cy="550" r="1.4" fill="#1b2636"/><circle cx="1162" cy="550" r="1.4" fill="#1b2636"/><circle cx="1196" cy="550" r="1.4" fill="#1b2636"/><circle cx="40" cy="584" r="1.4" fill="#1b2636"/><circle cx="74" cy="584" r="1.4" fill="#1b2636"/><circle cx="108" cy="584" r="1.4" fill="#1b2636"/><circle cx="142" cy="584" r="1.4" fill="#1b2636"/><circle cx="176" cy="584" r="1.4" fill="#1b2636"/><circle cx="210" cy="584" r="1.4" fill="#1b2636"/><circle cx="244" cy="584" r="1.4" fill="#1b2636"/><circle cx="278" cy="584" r="1.4" fill="#1b2636"/><circle cx="312" cy="584" r="1.4" fill="#1b2636"/><circle cx="346" cy="584" r="1.4" fill="#1b2636"/><circle cx="380" cy="584" r="1.4" fill="#1b2636"/><circle cx="414" cy="584" r="1.4" fill="#1b2636"/><circle cx="448" cy="584" r="1.4" fill="#1b2636"/><circle cx="482" cy="584" r="1.4" fill="#1b2636"/><circle cx="516" cy="584" r="1.4" fill="#1b2636"/><circle cx="550" cy="584" r="1.4" fill="#1b2636"/><circle cx="584" cy="584" r="1.4" fill="#1b2636"/><circle cx="618" cy="584" r="1.4" fill="#1b2636"/><circle cx="652" cy="584" r="1.4" fill="#1b2636"/><circle cx="686" cy="584" r="1.4" fill="#1b2636"/><circle cx="720" cy="584" r="1.4" fill="#1b2636"/><circle cx="754" cy="584" r="1.4" fill="#1b2636"/><circle cx="788" cy="584" r="1.4" fill="#1b2636"/><circle cx="822" cy="584" r="1.4" fill="#1b2636"/><circle cx="856" cy="584" r="1.4" fill="#1b2636"/><circle cx="890" cy="584" r="1.4" fill="#1b2636"/><circle cx="924" cy="584" r="1.4" fill="#1b2636"/><circle cx="958" cy="584" r="1.4" fill="#1b2636"/><circle cx="992" cy="584" r="1.4" fill="#1b2636"/><circle cx="1026" cy="584" r="1.4" fill="#1b2636"/><circle cx="1060" cy="584" r="1.4" fill="#1b2636"/><circle cx="1094" cy="584" r="1.4" fill="#1b2636"/><circle cx="1128" cy="584" r="1.4" fill="#1b2636"/><circle cx="1162" cy="584" r="1.4" fill="#1b2636"/><circle cx="1196" cy="584" r="1.4" fill="#1b2636"/><circle cx="40" cy="618" r="1.4" fill="#1b2636"/><circle cx="74" cy="618" r="1.4" fill="#1b2636"/><circle cx="108" cy="618" r="1.4" fill="#1b2636"/><circle cx="142" cy="618" r="1.4" fill="#1b2636"/><circle cx="176" cy="618" r="1.4" fill="#1b2636"/><circle cx="210" cy="618" r="1.4" fill="#1b2636"/><circle cx="244" cy="618" r="1.4" fill="#1b2636"/><circle cx="278" cy="618" r="1.4" fill="#1b2636"/><circle cx="312" cy="618" r="1.4" fill="#1b2636"/><circle cx="346" cy="618" r="1.4" fill="#1b2636"/><circle cx="380" cy="618" r="1.4" fill="#1b2636"/><circle cx="414" cy="618" r="1.4" fill="#1b2636"/><circle cx="448" cy="618" r="1.4" fill="#1b2636"/><circle cx="482" cy="618" r="1.4" fill="#1b2636"/><circle cx="516" cy="618" r="1.4" fill="#1b2636"/><circle cx="550" cy="618" r="1.4" fill="#1b2636"/><circle cx="584" cy="618" r="1.4" fill="#1b2636"/><circle cx="618" cy="618" r="1.4" fill="#1b2636"/><circle cx="652" cy="618" r="1.4" fill="#1b2636"/><circle cx="686" cy="618" r="1.4" fill="#1b2636"/><circle cx="720" cy="618" r="1.4" fill="#1b2636"/><circle cx="754" cy="618" r="1.4" fill="#1b2636"/><circle cx="788" cy="618" r="1.4" fill="#1b2636"/><circle cx="822" cy="618" r="1.4" fill="#1b2636"/><circle cx="856" cy="618" r="1.4" fill="#1b2636"/><circle cx="890" cy="618" r="1.4" fill="#1b2636"/><circle cx="924" cy="618" r="1.4" fill="#1b2636"/><circle cx="958" cy="618" r="1.4" fill="#1b2636"/><circle cx="992" cy="618" r="1.4" fill="#1b2636"/><circle cx="1026" cy="618" r="1.4" fill="#1b2636"/><circle cx="1060" cy="618" r="1.4" fill="#1b2636"/><circle cx="1094" cy="618" r="1.4" fill="#1b2636"/><circle cx="1128" cy="618" r="1.4" fill="#1b2636"/><circle cx="1162" cy="618" r="1.4" fill="#1b2636"/><circle cx="1196" cy="618" r="1.4" fill="#1b2636"/></g><circle cx="1120" cy="80" r="220" fill="#11A877" opacity="0.10"/><circle cx="60" cy="600" r="200" fill="#34DEEB" opacity="0.07"/><g transform="translate(80 70) scale(0.78)"><path d="M14 11 a5 5 0 0 1 5 -5 H39 L50 17 V53 a5 5 0 0 1 -5 5 H19 a5 5 0 0 1 -5 -5 Z" fill="#FFFFFF" stroke="#94A3B8" stroke-width="1.6"/><path d="M39 6 L50 17 L39 17 Z" fill="#E2E8F0" stroke="#94A3B8" stroke-width="1"/><rect x="20" y="21" width="18" height="2.4" rx="1.2" fill="#94A3B8"/><rect x="20" y="27" width="22" height="2.4" rx="1.2" fill="#94A3B8"/><rect x="20" y="33" width="16" height="6" rx="1" fill="#BFEFF4"/><rect x="20" y="35" width="16" height="2.4" rx="1.2" fill="#7E8B9C"/><path d="M35 33 H41 M38 33 V41 M35 41 H41" fill="none" stroke="#11A877" stroke-width="2" stroke-linecap="round"/><rect x="20" y="45" width="12" height="2.4" rx="1.2" fill="#94A3B8"/></g><path transform="matrix(0.03 0 0 -0.03 139.92000000000002 111.1504)" d="M334 -14Q253 -14 188.5 23.5Q124 61 86.5 135.5Q49 210 49 323Q49 406 70.5 470.5Q92 535 133.5 580.5Q175 626 236.0 650.0Q297 674 377 674Q437 674 486.0 660.0Q535 646 571.0 620.0Q607 594 627.5 557.5Q648 521 650 475L514 433Q512 475 492.5 502.0Q473 529 441.5 542.5Q410 556 371 556Q317 556 278.5 531.5Q240 507 220.0 456.5Q200 406 200 329Q200 270 211.5 227.5Q223 185 246.0 157.0Q269 129 301.0 115.5Q333 102 375 102Q419 102 451.5 116.5Q484 131 503.5 161.5Q523 192 525 239H400V343H667V222V0H567L569 169H551Q535 109 508.0 68.5Q481 28 438.5 7.0Q396 -14 334 -14Z" fill="#E6E9ED"/><path transform="matrix(0.03 0 0 -0.03 161.55 111.1504)" d="M66 0V525H210V0ZM139 604Q97 604 74.5 621.5Q52 639 52 673Q52 708 74.5 726.0Q97 744 139 744Q182 744 204.5 726.0Q227 708 227 673Q227 640 204.5 622.0Q182 604 139 604Z" fill="#E6E9ED"/><path transform="matrix(0.03 0 0 -0.03 169.86 111.1504)" d="M274 -183Q188 -183 132.5 -169.5Q77 -156 51.0 -130.0Q25 -104 25 -65Q25 -19 61.5 10.0Q98 39 169 45V65Q115 65 86.0 76.5Q57 88 57 117Q57 145 85.5 167.0Q114 189 180 202V222Q118 226 83.0 262.0Q48 298 48 355Q48 405 76.0 444.5Q104 484 159.5 507.5Q215 531 296 531H562V421L397 444V421Q461 412 489.5 389.0Q518 366 518 325Q518 284 491.0 253.0Q464 222 414.5 204.5Q365 187 296 187Q283 187 268.0 188.0Q253 189 218 193Q199 179 188.5 168.5Q178 158 178 149Q178 142 185.5 137.0Q193 132 205.5 130.0Q218 128 231 128H381Q401 128 433.0 125.5Q465 123 497.0 110.0Q529 97 551.0 68.5Q573 40 573 -13Q573 -71 540.5 -109.0Q508 -147 441.5 -165.0Q375 -183 274 -183ZM290 -68Q351 -68 385.0 -61.5Q419 -55 433.5 -40.5Q448 -26 448 -4Q448 16 439.5 27.0Q431 38 417.5 42.5Q404 47 390.5 48.5Q377 50 367 50H241Q199 46 180.5 27.5Q162 9 162 -15Q162 -37 176.0 -48.0Q190 -59 218.5 -63.5Q247 -68 290 -68ZM288 262Q336 262 360.0 285.5Q384 309 384 347Q384 387 359.5 413.0Q335 439 288 439Q242 439 216.0 413.5Q190 388 190 348Q190 323 201.5 303.5Q213 284 235.0 273.0Q257 262 288 262Z" fill="#E6E9ED"/><path transform="matrix(0.03 0 0 -0.03 187.89000000000001 111.1504)" d="M189 -14Q145 -14 111.0 3.5Q77 21 58.0 54.0Q39 87 39 136Q39 179 55.5 208.0Q72 237 104.0 255.0Q136 273 183.0 285.0Q230 297 290 306Q322 311 342.5 315.5Q363 320 373.0 330.5Q383 341 383 361Q383 389 363.0 409.0Q343 429 300 429Q271 429 246.5 419.0Q222 409 204.5 389.0Q187 369 179 338L52 377Q64 418 86.5 448.0Q109 478 141.0 498.5Q173 519 214.0 529.0Q255 539 303 539Q380 539 428.5 514.5Q477 490 501.0 438.5Q525 387 525 306V216Q525 181 526.5 145.0Q528 109 530.5 72.5Q533 36 536 0H409Q405 25 401.5 57.5Q398 90 396 123H378Q364 85 338.0 54.0Q312 23 274.5 4.5Q237 -14 189 -14ZM250 90Q269 90 288.5 97.0Q308 104 326.5 116.5Q345 129 360.5 148.0Q376 167 386 191L384 275L407 270Q389 257 365.0 249.5Q341 242 315.5 238.0Q290 234 265.0 229.0Q240 224 220.5 216.0Q201 208 189.5 194.5Q178 181 178 157Q178 126 198.0 108.0Q218 90 250 90Z" fill="#E6E9ED"/><path transform="matrix(0.03 0 0 -0.03 205.44 111.1504)" d="M174 186V299H325Q397 299 433.0 328.5Q469 358 469 426Q469 486 435.5 517.5Q402 549 332 549H174V660H336Q400 660 451.5 645.0Q503 630 539.5 600.5Q576 571 595.0 526.5Q614 482 614 422Q614 345 579.0 292.5Q544 240 475.5 213.0Q407 186 305 186ZM73 0V660H217V0Z" fill="#34DD79"/><path transform="matrix(0.03 0 0 -0.03 224.82 111.1504)" d="M142 0V117H334Q390 117 427.0 141.5Q464 166 483.0 213.0Q502 260 502 328Q502 384 490.0 424.5Q478 465 454.5 491.0Q431 517 395.5 530.0Q360 543 312 543H142V660H307Q427 660 503.0 621.0Q579 582 615.0 509.5Q651 437 651 336Q651 260 633.0 204.0Q615 148 584.5 109.0Q554 70 514.0 46.0Q474 22 429.0 11.0Q384 0 338 0ZM73 0V660H217V0Z" fill="#34DD79"/><path transform="matrix(0.03 0 0 -0.03 245.82 111.1504)" d="M73 0V660H217V0ZM142 247V365H527V247ZM142 537V660H564V537Z" fill="#34DD79"/><path transform="matrix(0.022 0 0 -0.022 84.0 210)" d="M359 -14Q287 -14 230.0 8.5Q173 31 132.5 74.5Q92 118 70.5 181.5Q49 245 49 327Q49 444 90.0 520.5Q131 597 202.5 635.5Q274 674 364 674Q434 674 491.0 651.5Q548 629 588.5 585.5Q629 542 651.0 477.5Q673 413 673 330Q673 245 651.0 181.0Q629 117 587.5 73.5Q546 30 488.0 8.0Q430 -14 359 -14ZM363 101Q416 101 452.0 127.0Q488 153 507.0 202.0Q526 251 526 322Q526 396 506.5 448.0Q487 500 450.0 527.5Q413 555 360 555Q308 555 271.5 528.5Q235 502 215.5 452.0Q196 402 196 328Q196 274 207.5 231.5Q219 189 240.0 160.0Q261 131 292.0 116.0Q323 101 363 101Z" fill="#34DD79"/><path transform="matrix(0.022 0 0 -0.022 100.764 210)" d="M174 186V299H325Q397 299 433.0 328.5Q469 358 469 426Q469 486 435.5 517.5Q402 549 332 549H174V660H336Q400 660 451.5 645.0Q503 630 539.5 600.5Q576 571 595.0 526.5Q614 482 614 422Q614 345 579.0 292.5Q544 240 475.5 213.0Q407 186 305 186ZM73 0V660H217V0Z" fill="#34DD79"/><path transform="matrix(0.022 0 0 -0.022 115.856 210)" d="M73 0V660H218V0ZM173 0V117H582V0ZM173 280V387H532V280ZM173 544V660H580V544Z" fill="#34DD79"/><path transform="matrix(0.022 0 0 -0.022 130.398 210)" d="M73 0V660H261L560 193H571L562 660H702V0H532L216 489H205L214 0Z" fill="#34DD79"/><path transform="matrix(0.022 0 0 -0.022 154.268 210)" d="M328 -14Q263 -14 211.5 -1.5Q160 11 123.5 36.5Q87 62 66.5 100.5Q46 139 43 189L169 230Q171 185 191.5 155.0Q212 125 250.0 111.0Q288 97 335 97Q380 97 411.0 108.0Q442 119 458.0 137.5Q474 156 474 178Q474 204 454.0 220.0Q434 236 399.5 247.0Q365 258 321 268Q272 279 224.5 293.0Q177 307 138.5 329.0Q100 351 77.5 386.0Q55 421 55 474Q55 535 85.5 579.5Q116 624 175.0 649.0Q234 674 317 674Q401 674 460.5 649.5Q520 625 553.0 580.5Q586 536 589 475L459 439Q459 470 449.0 493.0Q439 516 421.0 531.5Q403 547 376.5 555.0Q350 563 316 563Q277 563 248.5 553.0Q220 543 205.5 526.0Q191 509 191 486Q191 459 213.5 441.5Q236 424 273.5 413.0Q311 402 356 392Q399 383 443.5 369.5Q488 356 526.5 334.5Q565 313 588.5 276.5Q612 240 612 185Q612 125 580.0 80.0Q548 35 484.5 10.5Q421 -14 328 -14Z" fill="#34DD79"/><path transform="matrix(0.022 0 0 -0.022 169.492 210)" d="M359 -14Q287 -14 230.0 8.5Q173 31 132.5 74.5Q92 118 70.5 181.5Q49 245 49 327Q49 444 90.0 520.5Q131 597 202.5 635.5Q274 674 364 674Q434 674 491.0 651.5Q548 629 588.5 585.5Q629 542 651.0 477.5Q673 413 673 330Q673 245 651.0 181.0Q629 117 587.5 73.5Q546 30 488.0 8.0Q430 -14 359 -14ZM363 101Q416 101 452.0 127.0Q488 153 507.0 202.0Q526 251 526 322Q526 396 506.5 448.0Q487 500 450.0 527.5Q413 555 360 555Q308 555 271.5 528.5Q235 502 215.5 452.0Q196 402 196 328Q196 274 207.5 231.5Q219 189 240.0 160.0Q261 131 292.0 116.0Q323 101 363 101Z" fill="#34DD79"/><path transform="matrix(0.022 0 0 -0.022 186.256 210)" d="M365 -14Q304 -14 256.5 -1.5Q209 11 174.0 34.5Q139 58 115.5 91.5Q92 125 80.5 167.0Q69 209 69 259V660H214V264Q214 213 230.5 179.5Q247 146 280.0 130.0Q313 114 364 114Q416 114 449.5 130.0Q483 146 499.5 179.5Q516 213 516 264V660H659V259Q659 129 585.5 57.5Q512 -14 365 -14Z" fill="#34DD79"/><path transform="matrix(0.022 0 0 -0.022 203.152 210)" d="M73 0V660H341Q395 660 439.0 651.5Q483 643 517.0 627.0Q551 611 574.5 587.5Q598 564 610.0 533.5Q622 503 622 466Q622 431 611.0 402.5Q600 374 578.0 353.0Q556 332 523.0 318.5Q490 305 446 300V285Q497 280 527.5 261.5Q558 243 575.5 212.0Q593 181 606 135L646 0H487L456 125Q447 165 430.0 187.5Q413 210 387.0 219.5Q361 229 324 229H217V0ZM217 337H331Q399 337 436.0 363.0Q473 389 473 444Q473 498 438.5 523.5Q404 549 335 549H217Z" fill="#34DD79"/><path transform="matrix(0.022 0 0 -0.022 218.97 210)" d="M376 -14Q299 -14 238.5 7.5Q178 29 135.5 71.5Q93 114 71.0 177.0Q49 240 49 323Q49 407 71.5 472.0Q94 537 136.5 582.5Q179 628 237.0 651.0Q295 674 366 674Q421 674 468.0 659.5Q515 645 549.0 618.0Q583 591 602.5 552.0Q622 513 623 464L490 429Q490 471 471.5 499.0Q453 527 423.5 541.5Q394 556 361 556Q332 556 303.5 544.5Q275 533 251.5 506.5Q228 480 213.5 437.0Q199 394 199 332Q199 251 222.5 201.0Q246 151 287.0 127.5Q328 104 379 104Q434 104 464.5 126.5Q495 149 508.5 184.5Q522 220 523 260L649 239Q648 186 633.0 139.5Q618 93 586.0 58.5Q554 24 502.0 5.0Q450 -14 376 -14Z" fill="#34DD79"/><path transform="matrix(0.022 0 0 -0.022 234.81 210)" d="M73 0V660H218V0ZM173 0V117H582V0ZM173 280V387H532V280ZM173 544V660H580V544Z" fill="#34DD79"/><path transform="matrix(0.022 0 0 -0.022 255.292 210)" d="M116 258Q69 258 45.5 278.0Q22 298 22 340Q22 383 45.5 403.0Q69 423 116 423Q164 423 187.5 403.0Q211 383 211 340Q211 258 116 258Z" fill="#34DD79"/><path transform="matrix(0.022 0 0 -0.022 267.238 210)" d="M73 0V660H290L474 163H479L659 660H866V0H729L738 514H727L527 0H407L210 514H199L208 0Z" fill="#34DD79"/><path transform="matrix(0.022 0 0 -0.022 288.77599999999995 210)" d="M359 -14Q287 -14 230.0 8.5Q173 31 132.5 74.5Q92 118 70.5 181.5Q49 245 49 327Q49 444 90.0 520.5Q131 597 202.5 635.5Q274 674 364 674Q434 674 491.0 651.5Q548 629 588.5 585.5Q629 542 651.0 477.5Q673 413 673 330Q673 245 651.0 181.0Q629 117 587.5 73.5Q546 30 488.0 8.0Q430 -14 359 -14ZM363 101Q416 101 452.0 127.0Q488 153 507.0 202.0Q526 251 526 322Q526 396 506.5 448.0Q487 500 450.0 527.5Q413 555 360 555Q308 555 271.5 528.5Q235 502 215.5 452.0Q196 402 196 328Q196 274 207.5 231.5Q219 189 240.0 160.0Q261 131 292.0 116.0Q323 101 363 101Z" fill="#34DD79"/><path transform="matrix(0.022 0 0 -0.022 305.53999999999996 210)" d="M213 0V660H357V0ZM18 539V660H552V539Z" fill="#34DD79"/><path transform="matrix(0.022 0 0 -0.022 318.98199999999997 210)" d="M73 0V660H218V0ZM173 0V117H582V0ZM173 280V387H532V280ZM173 544V660H580V544Z" fill="#34DD79"/><path transform="matrix(0.022 0 0 -0.022 333.524 210)" d="M365 -14Q304 -14 256.5 -1.5Q209 11 174.0 34.5Q139 58 115.5 91.5Q92 125 80.5 167.0Q69 209 69 259V660H214V264Q214 213 230.5 179.5Q247 146 280.0 130.0Q313 114 364 114Q416 114 449.5 130.0Q483 146 499.5 179.5Q516 213 516 264V660H659V259Q659 129 585.5 57.5Q512 -14 365 -14Z" fill="#34DD79"/><path transform="matrix(0.022 0 0 -0.022 350.41999999999996 210)" d="M73 0V660H341Q395 660 439.0 651.5Q483 643 517.0 627.0Q551 611 574.5 587.5Q598 564 610.0 533.5Q622 503 622 466Q622 431 611.0 402.5Q600 374 578.0 353.0Q556 332 523.0 318.5Q490 305 446 300V285Q497 280 527.5 261.5Q558 243 575.5 212.0Q593 181 606 135L646 0H487L456 125Q447 165 430.0 187.5Q413 210 387.0 219.5Q361 229 324 229H217V0ZM217 337H331Q399 337 436.0 363.0Q473 389 473 444Q473 498 438.5 523.5Q404 549 335 549H217Z" fill="#34DD79"/><path transform="matrix(0.022 0 0 -0.022 372.178 210)" d="M73 0V660H341Q395 660 439.0 651.5Q483 643 517.0 627.0Q551 611 574.5 587.5Q598 564 610.0 533.5Q622 503 622 466Q622 431 611.0 402.5Q600 374 578.0 353.0Q556 332 523.0 318.5Q490 305 446 300V285Q497 280 527.5 261.5Q558 243 575.5 212.0Q593 181 606 135L646 0H487L456 125Q447 165 430.0 187.5Q413 210 387.0 219.5Q361 229 324 229H217V0ZM217 337H331Q399 337 436.0 363.0Q473 389 473 444Q473 498 438.5 523.5Q404 549 335 549H217Z" fill="#34DD79"/><path transform="matrix(0.022 0 0 -0.022 387.996 210)" d="M365 -14Q304 -14 256.5 -1.5Q209 11 174.0 34.5Q139 58 115.5 91.5Q92 125 80.5 167.0Q69 209 69 259V660H214V264Q214 213 230.5 179.5Q247 146 280.0 130.0Q313 114 364 114Q416 114 449.5 130.0Q483 146 499.5 179.5Q516 213 516 264V660H659V259Q659 129 585.5 57.5Q512 -14 365 -14Z" fill="#34DD79"/><path transform="matrix(0.022 0 0 -0.022 404.892 210)" d="M328 -14Q263 -14 211.5 -1.5Q160 11 123.5 36.5Q87 62 66.5 100.5Q46 139 43 189L169 230Q171 185 191.5 155.0Q212 125 250.0 111.0Q288 97 335 97Q380 97 411.0 108.0Q442 119 458.0 137.5Q474 156 474 178Q474 204 454.0 220.0Q434 236 399.5 247.0Q365 258 321 268Q272 279 224.5 293.0Q177 307 138.5 329.0Q100 351 77.5 386.0Q55 421 55 474Q55 535 85.5 579.5Q116 624 175.0 649.0Q234 674 317 674Q401 674 460.5 649.5Q520 625 553.0 580.5Q586 536 589 475L459 439Q459 470 449.0 493.0Q439 516 421.0 531.5Q403 547 376.5 555.0Q350 563 316 563Q277 563 248.5 553.0Q220 543 205.5 526.0Q191 509 191 486Q191 459 213.5 441.5Q236 424 273.5 413.0Q311 402 356 392Q399 383 443.5 369.5Q488 356 526.5 334.5Q565 313 588.5 276.5Q612 240 612 185Q612 125 580.0 80.0Q548 35 484.5 10.5Q421 -14 328 -14Z" fill="#34DD79"/><path transform="matrix(0.022 0 0 -0.022 420.116 210)" d="M213 0V660H357V0ZM18 539V660H552V539Z" fill="#34DD79"/><path transform="matrix(0.078 0 0 -0.078 80.0 296)" d="M73 0V660H218V0ZM173 0V117H582V0ZM173 280V387H532V280ZM173 544V660H580V544ZM356 732H246L321 901H464Z" fill="#E6E9ED"/><path transform="matrix(0.078 0 0 -0.078 128.438 296)" d="M257 -14Q191 -14 141.5 20.0Q92 54 65.0 116.0Q38 178 38 263Q38 343 62.0 405.0Q86 467 133.0 502.0Q180 537 250 537Q301 537 336.0 518.0Q371 499 393.5 462.5Q416 426 429 375H452Q445 407 439.5 437.5Q434 468 431.0 496.0Q428 524 428 545V715H572V258V0H452V152H432Q421 96 398.0 59.0Q375 22 339.5 4.0Q304 -14 257 -14ZM305 104Q338 104 361.0 118.0Q384 132 399.0 154.5Q414 177 421.0 203.5Q428 230 428 253V272Q428 291 422.5 311.5Q417 332 407.0 352.0Q397 372 382.0 387.5Q367 403 347.0 412.0Q327 421 303 421Q267 421 242.0 401.0Q217 381 203.0 345.5Q189 310 189 263Q189 215 203.5 179.0Q218 143 244.0 123.5Q270 104 305 104Z" fill="#E6E9ED"/><path transform="matrix(0.078 0 0 -0.078 178.28 296)" d="M66 0V525H210V0ZM139 604Q97 604 74.5 621.5Q52 639 52 673Q52 708 74.5 726.0Q97 744 139 744Q182 744 204.5 726.0Q227 708 227 673Q227 640 204.5 622.0Q182 604 139 604Z" fill="#E6E9ED"/><path transform="matrix(0.078 0 0 -0.078 199.886 296)" d="M261 -12Q173 -12 131.5 34.5Q90 81 90 183V412H14L16 525H69Q100 525 115.0 534.0Q130 543 133 567L146 642H228V525H361V408H228V189Q228 153 245.0 137.0Q262 121 297 121Q316 121 333.5 125.0Q351 129 364 138V4Q333 -6 307.0 -9.0Q281 -12 261 -12Z" fill="#E6E9ED"/><path transform="matrix(0.078 0 0 -0.078 230.852 296)" d="M310 -14Q245 -14 194.5 4.0Q144 22 109.0 56.0Q74 90 55.5 140.0Q37 190 37 253Q37 315 54.5 367.5Q72 420 106.0 458.5Q140 497 189.0 518.0Q238 539 300 539Q360 539 407.0 519.5Q454 500 485.5 461.0Q517 422 531.5 365.5Q546 309 542 236L130 232V311L459 314L408 274Q415 327 401.0 361.0Q387 395 360.5 411.0Q334 427 302 427Q264 427 235.0 407.0Q206 387 190.0 348.5Q174 310 174 256Q174 171 211.5 131.0Q249 91 310 91Q338 91 357.5 98.5Q377 106 389.5 118.0Q402 130 409.5 145.0Q417 160 422 175L547 148Q538 111 520.5 81.5Q503 52 474.0 30.5Q445 9 404.5 -2.5Q364 -14 310 -14Z" fill="#E6E9ED"/><path transform="matrix(0.078 0 0 -0.078 276.16999999999996 296)" d="M34 0V121L305 396V410H39V525H488V406L215 130V116H490V0Z" fill="#E6E9ED"/><path transform="matrix(0.078 0 0 -0.078 334.98199999999997 296)" d="M186 0 11 524H170L281 114H297L408 524H561L385 0Z" fill="#E6E9ED"/><path transform="matrix(0.078 0 0 -0.078 379.598 296)" d="M304 -14Q225 -14 165.0 17.5Q105 49 71.0 110.5Q37 172 37 264Q37 356 71.5 417.0Q106 478 166.5 508.5Q227 539 304 539Q383 539 443.5 508.0Q504 477 538.5 415.5Q573 354 573 262Q573 169 537.5 107.5Q502 46 441.5 16.0Q381 -14 304 -14ZM309 93Q348 93 374.5 111.0Q401 129 414.5 165.5Q428 202 428 254Q428 309 413.5 347.5Q399 386 371.0 406.5Q343 427 300 427Q263 427 236.0 409.5Q209 392 195.0 355.5Q181 319 181 266Q181 181 215.0 137.0Q249 93 309 93Z" fill="#E6E9ED"/><path transform="matrix(0.078 0 0 -0.078 427.1 296)" d="M276 -14Q223 -14 180.0 -4.0Q137 6 106.0 25.0Q75 44 56.0 70.5Q37 97 31 130L141 175Q145 153 163.0 134.0Q181 115 211.5 103.5Q242 92 285 92Q331 92 356.0 105.5Q381 119 381 144Q381 163 367.0 174.0Q353 185 326.0 193.0Q299 201 261 208Q224 217 185.5 227.0Q147 237 114.5 255.0Q82 273 61.5 302.5Q41 332 41 378Q41 426 67.0 462.0Q93 498 143.0 518.5Q193 539 265 539Q330 539 379.0 521.5Q428 504 459.5 471.5Q491 439 502 394L385 355Q381 379 365.5 397.0Q350 415 324.5 424.0Q299 433 265 433Q222 433 198.5 419.0Q175 405 175 382Q175 363 190.5 351.0Q206 339 234.0 331.5Q262 324 300 316Q340 308 378.0 297.5Q416 287 446.5 270.0Q477 253 495.0 225.0Q513 197 513 153Q513 101 485.0 63.5Q457 26 404.0 6.0Q351 -14 276 -14Z" fill="#E6E9ED"/><path transform="matrix(0.078 0 0 -0.078 487.472 296)" d="M174 186V299H325Q397 299 433.0 328.5Q469 358 469 426Q469 486 435.5 517.5Q402 549 332 549H174V660H336Q400 660 451.5 645.0Q503 630 539.5 600.5Q576 571 595.0 526.5Q614 482 614 422Q614 345 579.0 292.5Q544 240 475.5 213.0Q407 186 305 186ZM73 0V660H217V0Z" fill="#E6E9ED"/><path transform="matrix(0.078 0 0 -0.078 537.86 296)" d="M142 0V117H334Q390 117 427.0 141.5Q464 166 483.0 213.0Q502 260 502 328Q502 384 490.0 424.5Q478 465 454.5 491.0Q431 517 395.5 530.0Q360 543 312 543H142V660H307Q427 660 503.0 621.0Q579 582 615.0 509.5Q651 437 651 336Q651 260 633.0 204.0Q615 148 584.5 109.0Q554 70 514.0 46.0Q474 22 429.0 11.0Q384 0 338 0ZM73 0V660H217V0Z" fill="#E6E9ED"/><path transform="matrix(0.078 0 0 -0.078 592.46 296)" d="M73 0V660H217V0ZM142 247V365H527V247ZM142 537V660H564V537Z" fill="#E6E9ED"/><path transform="matrix(0.078 0 0 -0.078 80.0 384)" d="M309 -14Q241 -14 190.0 6.0Q139 26 105.0 62.0Q71 98 54.0 147.5Q37 197 37 256Q37 318 54.5 369.5Q72 421 106.0 459.0Q140 497 190.0 518.0Q240 539 304 539Q368 539 415.5 518.0Q463 497 492.5 459.5Q522 422 533 371L400 328Q397 359 383.5 381.5Q370 404 347.5 415.5Q325 427 297 427Q268 427 247.0 415.5Q226 404 211.5 382.5Q197 361 189.5 330.5Q182 300 182 262Q182 208 196.5 170.5Q211 133 239.5 113.5Q268 94 310 94Q350 94 374.0 109.5Q398 125 409.5 149.5Q421 174 424 200L550 172Q545 133 528.5 99.0Q512 65 482.0 40.0Q452 15 409.5 0.5Q367 -14 309 -14Z" fill="#E6E9ED"/><path transform="matrix(0.078 0 0 -0.078 124.148 384)" d="M304 -14Q225 -14 165.0 17.5Q105 49 71.0 110.5Q37 172 37 264Q37 356 71.5 417.0Q106 478 166.5 508.5Q227 539 304 539Q383 539 443.5 508.0Q504 477 538.5 415.5Q573 354 573 262Q573 169 537.5 107.5Q502 46 441.5 16.0Q381 -14 304 -14ZM309 93Q348 93 374.5 111.0Q401 129 414.5 165.5Q428 202 428 254Q428 309 413.5 347.5Q399 386 371.0 406.5Q343 427 300 427Q263 427 236.0 409.5Q209 392 195.0 355.5Q181 319 181 266Q181 181 215.0 137.0Q249 93 309 93Z" fill="#E6E9ED"/><path transform="matrix(0.078 0 0 -0.078 171.65 384)" d="M66 0V336V525H181V368H200Q214 426 237.0 463.5Q260 501 292.5 520.0Q325 539 369 539Q416 539 447.0 518.0Q478 497 495.0 459.5Q512 422 517 368H533Q548 427 573.5 465.0Q599 503 634.5 521.0Q670 539 713 539Q756 539 788.5 522.0Q821 505 843.0 471.5Q865 438 876.0 387.5Q887 337 887 271V0H743V253Q743 307 734.0 343.5Q725 380 706.0 398.0Q687 416 657 416Q624 416 600.0 393.5Q576 371 562.0 332.0Q548 293 547 243V0H406V249Q406 305 396.0 341.5Q386 378 367.0 397.0Q348 416 319 416Q285 416 261.0 393.5Q237 371 224.0 331.0Q211 291 210 242V0Z" fill="#E6E9ED"/><path transform="matrix(0.078 0 0 -0.078 245.438 384)" d="M66 0V336V525H181V368H200Q214 426 237.0 463.5Q260 501 292.5 520.0Q325 539 369 539Q416 539 447.0 518.0Q478 497 495.0 459.5Q512 422 517 368H533Q548 427 573.5 465.0Q599 503 634.5 521.0Q670 539 713 539Q756 539 788.5 522.0Q821 505 843.0 471.5Q865 438 876.0 387.5Q887 337 887 271V0H743V253Q743 307 734.0 343.5Q725 380 706.0 398.0Q687 416 657 416Q624 416 600.0 393.5Q576 371 562.0 332.0Q548 293 547 243V0H406V249Q406 305 396.0 341.5Q386 378 367.0 397.0Q348 416 319 416Q285 416 261.0 393.5Q237 371 224.0 331.0Q211 291 210 242V0Z" fill="#E6E9ED"/><path transform="matrix(0.078 0 0 -0.078 319.226 384)" d="M310 -14Q245 -14 194.5 4.0Q144 22 109.0 56.0Q74 90 55.5 140.0Q37 190 37 253Q37 315 54.5 367.5Q72 420 106.0 458.5Q140 497 189.0 518.0Q238 539 300 539Q360 539 407.0 519.5Q454 500 485.5 461.0Q517 422 531.5 365.5Q546 309 542 236L130 232V311L459 314L408 274Q415 327 401.0 361.0Q387 395 360.5 411.0Q334 427 302 427Q264 427 235.0 407.0Q206 387 190.0 348.5Q174 310 174 256Q174 171 211.5 131.0Q249 91 310 91Q338 91 357.5 98.5Q377 106 389.5 118.0Q402 130 409.5 145.0Q417 160 422 175L547 148Q538 111 520.5 81.5Q503 52 474.0 30.5Q445 9 404.5 -2.5Q364 -14 310 -14Z" fill="#E6E9ED"/><path transform="matrix(0.078 0 0 -0.078 382.484 384)" d="M244 -14Q152 -14 105.5 48.5Q59 111 59 239V525H203V257Q203 180 226.0 142.5Q249 105 296 105Q324 105 345.0 119.0Q366 133 381.0 158.0Q396 183 403.5 217.0Q411 251 412 290V525H556V214V0H440L439 164H421Q406 102 383.5 62.5Q361 23 326.5 4.5Q292 -14 244 -14Z" fill="#E6E9ED"/><path transform="matrix(0.078 0 0 -0.078 431.0 384)" d="M66 0V318V525H184L183 368H203Q216 425 240.0 463.0Q264 501 300.5 520.0Q337 539 387 539Q478 539 525.5 475.0Q573 411 573 274V0H428V258Q428 342 403.5 380.5Q379 419 332 419Q292 419 265.0 394.0Q238 369 224.5 328.5Q211 288 210 238V0Z" fill="#E6E9ED"/><path transform="matrix(0.078 0 0 -0.078 498.158 384)" d="M172 0 23 660H180L278 123H289L405 660H588L704 123H716L814 660H963L812 0H611L499 537H490L378 0Z" fill="#34DD79"/><path transform="matrix(0.078 0 0 -0.078 575.066 384)" d="M304 -14Q225 -14 165.0 17.5Q105 49 71.0 110.5Q37 172 37 264Q37 356 71.5 417.0Q106 478 166.5 508.5Q227 539 304 539Q383 539 443.5 508.0Q504 477 538.5 415.5Q573 354 573 262Q573 169 537.5 107.5Q502 46 441.5 16.0Q381 -14 304 -14ZM309 93Q348 93 374.5 111.0Q401 129 414.5 165.5Q428 202 428 254Q428 309 413.5 347.5Q399 386 371.0 406.5Q343 427 300 427Q263 427 236.0 409.5Q209 392 195.0 355.5Q181 319 181 266Q181 181 215.0 137.0Q249 93 309 93Z" fill="#34DD79"/><path transform="matrix(0.078 0 0 -0.078 622.568 384)" d="M66 0V254V525H185L186 346H205Q213 413 232.5 455.0Q252 497 287.0 517.0Q322 537 374 537Q383 537 393.5 536.5Q404 536 418 533L412 380Q397 387 379.0 390.0Q361 393 347 393Q308 393 280.0 375.0Q252 357 234.5 323.5Q217 290 211 242V0Z" fill="#34DD79"/><path transform="matrix(0.078 0 0 -0.078 656.4200000000001 384)" d="M257 -14Q191 -14 141.5 20.0Q92 54 65.0 116.0Q38 178 38 263Q38 343 62.0 405.0Q86 467 133.0 502.0Q180 537 250 537Q301 537 336.0 518.0Q371 499 393.5 462.5Q416 426 429 375H452Q445 407 439.5 437.5Q434 468 431.0 496.0Q428 524 428 545V715H572V258V0H452V152H432Q421 96 398.0 59.0Q375 22 339.5 4.0Q304 -14 257 -14ZM305 104Q338 104 361.0 118.0Q384 132 399.0 154.5Q414 177 421.0 203.5Q428 230 428 253V272Q428 291 422.5 311.5Q417 332 407.0 352.0Q397 372 382.0 387.5Q367 403 347.0 412.0Q327 421 303 421Q267 421 242.0 401.0Q217 381 203.0 345.5Q189 310 189 263Q189 215 203.5 179.0Q218 143 244.0 123.5Q270 104 305 104Z" fill="#34DD79"/><path transform="matrix(0.078 0 0 -0.078 706.2620000000001 384)" d="M116 -13Q69 -13 45.5 7.0Q22 27 22 69Q22 112 45.5 132.0Q69 152 116 152Q164 152 187.5 132.0Q211 112 211 69Q211 -13 116 -13Z" fill="#34DD79"/><path transform="matrix(0.026 0 0 -0.026 82.0 440)" d="M226 0V660H318V0ZM25 580V660H519V580Z" fill="#8B9BB0"/><path transform="matrix(0.026 0 0 -0.026 96.144 440)" d="M301 -13Q240 -13 193.5 5.5Q147 24 115.0 59.0Q83 94 67.0 142.0Q51 190 51 250Q51 311 67.0 362.0Q83 413 114.0 451.0Q145 489 190.0 509.5Q235 530 293 530Q344 530 386.0 513.0Q428 496 457.5 460.5Q487 425 502.0 371.5Q517 318 514 246L108 243V305L459 308L428 266Q433 329 416.0 370.0Q399 411 367.5 432.0Q336 453 293 453Q247 453 212.0 429.0Q177 405 158.5 360.0Q140 315 140 251Q140 159 181.0 110.5Q222 62 302 62Q334 62 357.5 69.5Q381 77 397.5 90.5Q414 104 424.5 122.0Q435 140 441 161L521 142Q512 106 493.5 77.5Q475 49 447.5 29.0Q420 9 384.0 -2.0Q348 -13 301 -13Z" fill="#8B9BB0"/><path transform="matrix(0.026 0 0 -0.026 110.80799999999999 440)" d="M24 0 199 258 22 517H129L251 309H264L384 517H490L315 258L494 0H387L264 209H251L131 0Z" fill="#8B9BB0"/><path transform="matrix(0.026 0 0 -0.026 124.22399999999999 440)" d="M240 -10Q168 -10 133.0 29.0Q98 68 98 148V441H20L21 517H70Q95 517 106.5 526.0Q118 535 120 556L130 634H186V517H335V440H186V150Q186 110 204.5 92.5Q223 75 258 75Q277 75 297.5 80.0Q318 85 338 100V9Q309 -2 284.5 -6.0Q260 -10 240 -10Z" fill="#8B9BB0"/><path transform="matrix(0.026 0 0 -0.026 133.87 440)" d="M301 -13Q240 -13 193.5 5.5Q147 24 115.0 59.0Q83 94 67.0 142.0Q51 190 51 250Q51 311 67.0 362.0Q83 413 114.0 451.0Q145 489 190.0 509.5Q235 530 293 530Q344 530 386.0 513.0Q428 496 457.5 460.5Q487 425 502.0 371.5Q517 318 514 246L108 243V305L459 308L428 266Q433 329 416.0 370.0Q399 411 367.5 432.0Q336 453 293 453Q247 453 212.0 429.0Q177 405 158.5 360.0Q140 315 140 251Q140 159 181.0 110.5Q222 62 302 62Q334 62 357.5 69.5Q381 77 397.5 90.5Q414 104 424.5 122.0Q435 140 441 161L521 142Q512 106 493.5 77.5Q475 49 447.5 29.0Q420 9 384.0 -2.0Q348 -13 301 -13Z" fill="#8B9BB0"/><path transform="matrix(0.026 0 0 -0.026 155.112 440)" d="M120 0V365H28V438L157 430V447Q132 457 115.5 474.5Q99 492 90.5 515.0Q82 538 82 564Q82 606 100.5 637.0Q119 668 153.5 686.0Q188 704 236 704Q274 704 304.5 693.5Q335 683 355 666L344 581Q325 599 298.0 609.5Q271 620 244 620Q211 620 190.0 599.0Q169 578 169 534Q169 509 176.0 491.0Q183 473 194.5 460.5Q206 448 218 440H346L345 365H210V0Z" fill="#8B9BB0"/><path transform="matrix(0.026 0 0 -0.026 164.732 440)" d="M80 0V517H171V0ZM126 607Q94 607 78.0 620.0Q62 633 62 659Q62 685 78.0 698.0Q94 711 125 711Q157 711 173.0 698.0Q189 685 189 659Q189 634 173.0 620.5Q157 607 126 607Z" fill="#8B9BB0"/><path transform="matrix(0.026 0 0 -0.026 171.232 440)" d="M261 -13Q195 -13 148.0 22.0Q101 57 76.5 118.0Q52 179 52 258Q52 337 76.0 398.0Q100 459 146.0 494.0Q192 529 259 529Q314 529 349.0 506.0Q384 483 405.5 446.5Q427 410 437 367H455Q450 396 446.0 427.5Q442 459 439.0 489.5Q436 520 436 544V700H528V255V0H446L451 140H435Q423 95 401.0 60.5Q379 26 345.0 6.5Q311 -13 261 -13ZM282 67Q318 67 347.0 84.0Q376 101 396.0 128.5Q416 156 426.5 188.0Q437 220 437 250V262Q437 283 431.0 307.5Q425 332 413.5 357.0Q402 382 383.5 403.5Q365 425 340.0 437.5Q315 450 284 450Q239 450 208.5 424.5Q178 399 162.5 355.0Q147 311 147 256Q147 199 163.0 156.5Q179 114 209.5 90.5Q240 67 282 67Z" fill="#8B9BB0"/><path transform="matrix(0.026 0 0 -0.026 187.014 440)" d="M301 -13Q240 -13 193.5 5.5Q147 24 115.0 59.0Q83 94 67.0 142.0Q51 190 51 250Q51 311 67.0 362.0Q83 413 114.0 451.0Q145 489 190.0 509.5Q235 530 293 530Q344 530 386.0 513.0Q428 496 457.5 460.5Q487 425 502.0 371.5Q517 318 514 246L108 243V305L459 308L428 266Q433 329 416.0 370.0Q399 411 367.5 432.0Q336 453 293 453Q247 453 212.0 429.0Q177 405 158.5 360.0Q140 315 140 251Q140 159 181.0 110.5Q222 62 302 62Q334 62 357.5 69.5Q381 77 397.5 90.5Q414 104 424.5 122.0Q435 140 441 161L521 142Q512 106 493.5 77.5Q475 49 447.5 29.0Q420 9 384.0 -2.0Q348 -13 301 -13ZM261 597 167 752H266L338 597Z" fill="#8B9BB0"/><path transform="matrix(0.026 0 0 -0.026 201.678 440)" d="M79 0V700H170V0Z" fill="#8B9BB0"/><path transform="matrix(0.026 0 0 -0.026 208.12599999999998 440)" d="M301 -13Q240 -13 193.5 5.5Q147 24 115.0 59.0Q83 94 67.0 142.0Q51 190 51 250Q51 311 67.0 362.0Q83 413 114.0 451.0Q145 489 190.0 509.5Q235 530 293 530Q344 530 386.0 513.0Q428 496 457.5 460.5Q487 425 502.0 371.5Q517 318 514 246L108 243V305L459 308L428 266Q433 329 416.0 370.0Q399 411 367.5 432.0Q336 453 293 453Q247 453 212.0 429.0Q177 405 158.5 360.0Q140 315 140 251Q140 159 181.0 110.5Q222 62 302 62Q334 62 357.5 69.5Q381 77 397.5 90.5Q414 104 424.5 122.0Q435 140 441 161L521 142Q512 106 493.5 77.5Q475 49 447.5 29.0Q420 9 384.0 -2.0Q348 -13 301 -13Z" fill="#8B9BB0"/><path transform="matrix(0.026 0 0 -0.026 229.368 440)" d="M88 276Q56 276 40.0 290.0Q24 304 24 335Q24 365 40.0 379.0Q56 393 88 393Q121 393 137.5 379.0Q154 365 154 334Q154 276 88 276Z" fill="#8B9BB0"/><path transform="matrix(0.026 0 0 -0.026 240.548 440)" d="M301 -13Q233 -13 185.5 9.0Q138 31 108.5 68.0Q79 105 65.5 153.0Q52 201 52 253Q52 310 67.0 360.0Q82 410 112.5 448.5Q143 487 188.5 508.5Q234 530 295 530Q354 530 399.0 509.5Q444 489 472.5 452.0Q501 415 509 364L422 340Q420 368 405.5 394.0Q391 420 363.0 436.5Q335 453 294 453Q255 453 227.5 438.0Q200 423 181.5 396.0Q163 369 153.5 333.0Q144 297 144 255Q144 197 160.5 154.0Q177 111 212.0 87.0Q247 63 301 63Q343 63 372.0 77.5Q401 92 418.0 118.5Q435 145 440 181L524 162Q517 119 498.0 86.0Q479 53 450.0 31.5Q421 10 383.5 -1.5Q346 -13 301 -13Z" fill="#8B9BB0"/><path transform="matrix(0.026 0 0 -0.026 254.822 440)" d="M301 -13Q227 -13 170.5 19.5Q114 52 82.5 113.0Q51 174 51 261Q51 351 84.5 410.5Q118 470 174.0 500.0Q230 530 299 530Q371 530 427.5 498.5Q484 467 517.0 406.5Q550 346 550 257Q550 168 517.5 108.0Q485 48 428.5 17.5Q372 -13 301 -13ZM305 62Q353 62 387.5 85.5Q422 109 440.5 152.0Q459 195 459 254Q459 315 439.5 359.5Q420 404 384.0 428.5Q348 453 297 453Q250 453 215.5 431.0Q181 409 162.0 366.5Q143 324 143 263Q143 169 186.5 115.5Q230 62 305 62Z" fill="#8B9BB0"/><path transform="matrix(0.026 0 0 -0.026 270.448 440)" d="M79 0V700H170V0Z" fill="#8B9BB0"/><path transform="matrix(0.026 0 0 -0.026 276.89599999999996 440)" d="M79 0V700H170V0Z" fill="#8B9BB0"/><path transform="matrix(0.026 0 0 -0.026 283.344 440)" d="M198 -13Q156 -13 122.0 3.5Q88 20 68.0 52.5Q48 85 48 135Q48 172 61.5 200.0Q75 228 103.5 248.0Q132 268 177.0 281.0Q222 294 287 303Q324 308 347.5 313.0Q371 318 382.0 329.5Q393 341 393 364Q393 402 367.0 428.0Q341 454 285 454Q256 454 226.0 444.0Q196 434 173.5 410.5Q151 387 145 345L61 373Q69 409 87.5 438.0Q106 467 135.0 487.5Q164 508 202.5 519.0Q241 530 288 530Q353 530 396.5 508.0Q440 486 461.5 440.5Q483 395 483 324V209Q483 178 484.5 141.5Q486 105 489.0 68.5Q492 32 495 0H411Q408 32 405.5 64.0Q403 96 402 128H389Q374 91 349.0 59.0Q324 27 286.5 7.0Q249 -13 198 -13ZM225 61Q247 61 269.5 68.0Q292 75 314.5 91.0Q337 107 357.5 132.0Q378 157 394 192V292L420 287Q404 271 377.5 263.0Q351 255 319.0 250.0Q287 245 255.0 239.5Q223 234 196.5 223.5Q170 213 154.0 194.0Q138 175 138 142Q138 102 162.0 81.5Q186 61 225 61Z" fill="#8B9BB0"/><path transform="matrix(0.026 0 0 -0.026 297.826 440)" d="M347 -13Q297 -13 261.5 7.0Q226 27 204.5 61.5Q183 96 172 140H156L161 0H79V255V700H171V538Q171 512 168.5 483.5Q166 455 161.5 425.0Q157 395 152 367H170Q181 409 202.0 446.0Q223 483 258.5 506.0Q294 529 347 529Q413 529 459.5 494.5Q506 460 531.0 399.0Q556 338 556 257Q556 179 531.5 118.0Q507 57 460.5 22.0Q414 -13 347 -13ZM325 67Q368 67 398.0 90.0Q428 113 444.5 156.0Q461 199 461 256Q461 312 445.0 355.5Q429 399 399.0 424.5Q369 450 325 450Q293 450 268.0 437.5Q243 425 224.5 404.0Q206 383 194.0 358.0Q182 333 176.0 308.0Q170 283 170 262V250Q170 220 180.5 188.0Q191 156 211.0 128.5Q231 101 260.0 84.0Q289 67 325 67Z" fill="#8B9BB0"/><path transform="matrix(0.026 0 0 -0.026 313.634 440)" d="M301 -13Q227 -13 170.5 19.5Q114 52 82.5 113.0Q51 174 51 261Q51 351 84.5 410.5Q118 470 174.0 500.0Q230 530 299 530Q371 530 427.5 498.5Q484 467 517.0 406.5Q550 346 550 257Q550 168 517.5 108.0Q485 48 428.5 17.5Q372 -13 301 -13ZM305 62Q353 62 387.5 85.5Q422 109 440.5 152.0Q459 195 459 254Q459 315 439.5 359.5Q420 404 384.0 428.5Q348 453 297 453Q250 453 215.5 431.0Q181 409 162.0 366.5Q143 324 143 263Q143 169 186.5 115.5Q230 62 305 62Z" fill="#8B9BB0"/><path transform="matrix(0.026 0 0 -0.026 329.26 440)" d="M79 0V280V517H161L153 337H170Q179 396 198.0 439.0Q217 482 248.5 506.0Q280 530 327 530Q337 530 350.0 528.5Q363 527 380 521L375 426Q360 432 345.0 434.5Q330 437 316 437Q277 437 248.5 412.0Q220 387 201.0 344.5Q182 302 170 249V0Z" fill="#8B9BB0"/><path transform="matrix(0.026 0 0 -0.026 339.634 440)" d="M198 -13Q156 -13 122.0 3.5Q88 20 68.0 52.5Q48 85 48 135Q48 172 61.5 200.0Q75 228 103.5 248.0Q132 268 177.0 281.0Q222 294 287 303Q324 308 347.5 313.0Q371 318 382.0 329.5Q393 341 393 364Q393 402 367.0 428.0Q341 454 285 454Q256 454 226.0 444.0Q196 434 173.5 410.5Q151 387 145 345L61 373Q69 409 87.5 438.0Q106 467 135.0 487.5Q164 508 202.5 519.0Q241 530 288 530Q353 530 396.5 508.0Q440 486 461.5 440.5Q483 395 483 324V209Q483 178 484.5 141.5Q486 105 489.0 68.5Q492 32 495 0H411Q408 32 405.5 64.0Q403 96 402 128H389Q374 91 349.0 59.0Q324 27 286.5 7.0Q249 -13 198 -13ZM225 61Q247 61 269.5 68.0Q292 75 314.5 91.0Q337 107 357.5 132.0Q378 157 394 192V292L420 287Q404 271 377.5 263.0Q351 255 319.0 250.0Q287 245 255.0 239.5Q223 234 196.5 223.5Q170 213 154.0 194.0Q138 175 138 142Q138 102 162.0 81.5Q186 61 225 61Z" fill="#8B9BB0"/><path transform="matrix(0.026 0 0 -0.026 354.116 440)" d="M240 -10Q168 -10 133.0 29.0Q98 68 98 148V441H20L21 517H70Q95 517 106.5 526.0Q118 535 120 556L130 634H186V517H335V440H186V150Q186 110 204.5 92.5Q223 75 258 75Q277 75 297.5 80.0Q318 85 338 100V9Q309 -2 284.5 -6.0Q260 -10 240 -10Z" fill="#8B9BB0"/><path transform="matrix(0.026 0 0 -0.026 363.762 440)" d="M80 0V517H171V0ZM126 607Q94 607 78.0 620.0Q62 633 62 659Q62 685 78.0 698.0Q94 711 125 711Q157 711 173.0 698.0Q189 685 189 659Q189 634 173.0 620.5Q157 607 126 607Z" fill="#8B9BB0"/><path transform="matrix(0.026 0 0 -0.026 370.262 440)" d="M301 -13Q227 -13 170.5 19.5Q114 52 82.5 113.0Q51 174 51 261Q51 351 84.5 410.5Q118 470 174.0 500.0Q230 530 299 530Q371 530 427.5 498.5Q484 467 517.0 406.5Q550 346 550 257Q550 168 517.5 108.0Q485 48 428.5 17.5Q372 -13 301 -13ZM305 62Q353 62 387.5 85.5Q422 109 440.5 152.0Q459 195 459 254Q459 315 439.5 359.5Q420 404 384.0 428.5Q348 453 297 453Q250 453 215.5 431.0Q181 409 162.0 366.5Q143 324 143 263Q143 169 186.5 115.5Q230 62 305 62Z" fill="#8B9BB0"/><path transform="matrix(0.026 0 0 -0.026 385.888 440)" d="M79 0V321V517H161L152 353H169Q183 414 206.5 453.0Q230 492 266.0 511.0Q302 530 350 530Q436 530 480.5 468.5Q525 407 525 285V0H433V277Q433 365 405.5 407.0Q378 449 325 449Q277 449 243.5 419.0Q210 389 191.0 340.0Q172 291 170 234V0Z" fill="#8B9BB0"/><path transform="matrix(0.026 0 0 -0.026 407.962 440)" d="M79 0V700H170V0Z" fill="#8B9BB0"/><path transform="matrix(0.026 0 0 -0.026 414.40999999999997 440)" d="M80 0V517H171V0ZM126 607Q94 607 78.0 620.0Q62 633 62 659Q62 685 78.0 698.0Q94 711 125 711Q157 711 173.0 698.0Q189 685 189 659Q189 634 173.0 620.5Q157 607 126 607Z" fill="#8B9BB0"/><path transform="matrix(0.026 0 0 -0.026 420.90999999999997 440)" d="M204 0 19 516H120L261 77H275L415 516H514L330 0Z" fill="#8B9BB0"/><path transform="matrix(0.026 0 0 -0.026 434.768 440)" d="M301 -13Q240 -13 193.5 5.5Q147 24 115.0 59.0Q83 94 67.0 142.0Q51 190 51 250Q51 311 67.0 362.0Q83 413 114.0 451.0Q145 489 190.0 509.5Q235 530 293 530Q344 530 386.0 513.0Q428 496 457.5 460.5Q487 425 502.0 371.5Q517 318 514 246L108 243V305L459 308L428 266Q433 329 416.0 370.0Q399 411 367.5 432.0Q336 453 293 453Q247 453 212.0 429.0Q177 405 158.5 360.0Q140 315 140 251Q140 159 181.0 110.5Q222 62 302 62Q334 62 357.5 69.5Q381 77 397.5 90.5Q414 104 424.5 122.0Q435 140 441 161L521 142Q512 106 493.5 77.5Q475 49 447.5 29.0Q420 9 384.0 -2.0Q348 -13 301 -13Z" fill="#8B9BB0"/><path transform="matrix(0.026 0 0 -0.026 456.01 440)" d="M88 276Q56 276 40.0 290.0Q24 304 24 335Q24 365 40.0 379.0Q56 393 88 393Q121 393 137.5 379.0Q154 365 154 334Q154 276 88 276Z" fill="#8B9BB0"/><path transform="matrix(0.026 0 0 -0.026 467.19 440)" d="M271 -13Q217 -13 175.0 -1.5Q133 10 105.0 31.5Q77 53 62.0 83.0Q47 113 46 149L123 169Q121 136 139.5 111.5Q158 87 192.5 74.0Q227 61 276 61Q335 61 367.5 81.0Q400 101 400 136Q400 164 382.0 179.5Q364 195 332.5 204.5Q301 214 258 222Q222 230 186.0 240.0Q150 250 120.5 266.5Q91 283 73.0 310.0Q55 337 55 377Q55 424 80.0 458.0Q105 492 151.0 511.0Q197 530 261 530Q325 530 370.0 510.5Q415 491 441.0 456.0Q467 421 470 374L391 354Q390 387 373.5 410.0Q357 433 327.0 444.5Q297 456 257 456Q204 456 173.0 436.0Q142 416 142 381Q142 355 160.5 339.0Q179 323 211.0 314.0Q243 305 282 296Q322 288 358.5 278.0Q395 268 424.0 252.0Q453 236 470.0 209.5Q487 183 487 142Q487 91 460.0 56.5Q433 22 384.5 4.5Q336 -13 271 -13Z" fill="#8B9BB0"/><path transform="matrix(0.026 0 0 -0.026 480.96999999999997 440)" d="M80 0V517H171V0ZM126 607Q94 607 78.0 620.0Q62 633 62 659Q62 685 78.0 698.0Q94 711 125 711Q157 711 173.0 698.0Q189 685 189 659Q189 634 173.0 620.5Q157 607 126 607Z" fill="#8B9BB0"/><path transform="matrix(0.026 0 0 -0.026 487.46999999999997 440)" d="M272 -175Q190 -175 137.5 -162.5Q85 -150 60.0 -124.5Q35 -99 35 -61Q35 -15 71.0 15.0Q107 45 180 55V73Q127 73 100.0 86.0Q73 99 73 125Q73 152 100.0 170.5Q127 189 188 205V224Q127 225 95.0 260.5Q63 296 63 353Q63 404 90.5 441.5Q118 479 170.5 499.5Q223 520 296 520H540V443L380 468V449Q438 437 469.0 408.5Q500 380 500 332Q500 289 475.0 257.0Q450 225 401.5 207.5Q353 190 282 190Q268 190 252.5 191.5Q237 193 212 197Q185 180 168.5 166.0Q152 152 152 141Q152 130 167.5 123.5Q183 117 205.0 115.0Q227 113 246 113H363Q383 113 413.5 109.0Q444 105 474.5 92.0Q505 79 526.0 52.0Q547 25 547 -23Q547 -77 515.0 -111.0Q483 -145 422.0 -160.0Q361 -175 272 -175ZM274 -100Q340 -100 382.0 -91.5Q424 -83 443.5 -65.0Q463 -47 463 -19Q463 7 449.5 21.5Q436 36 416.0 42.0Q396 48 376.0 49.5Q356 51 342 51H225Q167 38 145.0 15.0Q123 -8 123 -34Q123 -62 143.0 -76.0Q163 -90 197.5 -95.0Q232 -100 274 -100ZM286 249Q349 249 381.0 275.0Q413 301 413 345Q413 392 380.5 422.5Q348 453 283 453Q220 453 186.5 424.0Q153 395 153 349Q153 319 168.5 296.5Q184 274 213.5 261.5Q243 249 286 249Z" fill="#8B9BB0"/><path transform="matrix(0.026 0 0 -0.026 502.602 440)" d="M79 0V321V517H161L152 353H169Q183 414 206.5 453.0Q230 492 266.0 511.0Q302 530 350 530Q436 530 480.5 468.5Q525 407 525 285V0H433V277Q433 365 405.5 407.0Q378 449 325 449Q277 449 243.5 419.0Q210 389 191.0 340.0Q172 291 170 234V0Z" fill="#8B9BB0"/><path transform="matrix(0.026 0 0 -0.026 518.098 440)" d="M198 -13Q156 -13 122.0 3.5Q88 20 68.0 52.5Q48 85 48 135Q48 172 61.5 200.0Q75 228 103.5 248.0Q132 268 177.0 281.0Q222 294 287 303Q324 308 347.5 313.0Q371 318 382.0 329.5Q393 341 393 364Q393 402 367.0 428.0Q341 454 285 454Q256 454 226.0 444.0Q196 434 173.5 410.5Q151 387 145 345L61 373Q69 409 87.5 438.0Q106 467 135.0 487.5Q164 508 202.5 519.0Q241 530 288 530Q353 530 396.5 508.0Q440 486 461.5 440.5Q483 395 483 324V209Q483 178 484.5 141.5Q486 105 489.0 68.5Q492 32 495 0H411Q408 32 405.5 64.0Q403 96 402 128H389Q374 91 349.0 59.0Q324 27 286.5 7.0Q249 -13 198 -13ZM225 61Q247 61 269.5 68.0Q292 75 314.5 91.0Q337 107 357.5 132.0Q378 157 394 192V292L420 287Q404 271 377.5 263.0Q351 255 319.0 250.0Q287 245 255.0 239.5Q223 234 196.5 223.5Q170 213 154.0 194.0Q138 175 138 142Q138 102 162.0 81.5Q186 61 225 61Z" fill="#8B9BB0"/><path transform="matrix(0.026 0 0 -0.026 532.5799999999999 440)" d="M240 -10Q168 -10 133.0 29.0Q98 68 98 148V441H20L21 517H70Q95 517 106.5 526.0Q118 535 120 556L130 634H186V517H335V440H186V150Q186 110 204.5 92.5Q223 75 258 75Q277 75 297.5 80.0Q318 85 338 100V9Q309 -2 284.5 -6.0Q260 -10 240 -10Z" fill="#8B9BB0"/><path transform="matrix(0.026 0 0 -0.026 542.226 440)" d="M245 -13Q159 -13 115.0 47.0Q71 107 71 226V517H163V234Q163 150 189.0 109.0Q215 68 271 68Q302 68 326.5 83.0Q351 98 370.0 126.0Q389 154 401.0 192.5Q413 231 417 276V517H508V216V0H427L435 166H420Q407 104 383.5 64.5Q360 25 325.0 6.0Q290 -13 245 -13Z" fill="#8B9BB0"/><path transform="matrix(0.026 0 0 -0.026 557.488 440)" d="M79 0V280V517H161L153 337H170Q179 396 198.0 439.0Q217 482 248.5 506.0Q280 530 327 530Q337 530 350.0 528.5Q363 527 380 521L375 426Q360 432 345.0 434.5Q330 437 316 437Q277 437 248.5 412.0Q220 387 201.0 344.5Q182 302 170 249V0Z" fill="#8B9BB0"/><path transform="matrix(0.026 0 0 -0.026 567.862 440)" d="M301 -13Q240 -13 193.5 5.5Q147 24 115.0 59.0Q83 94 67.0 142.0Q51 190 51 250Q51 311 67.0 362.0Q83 413 114.0 451.0Q145 489 190.0 509.5Q235 530 293 530Q344 530 386.0 513.0Q428 496 457.5 460.5Q487 425 502.0 371.5Q517 318 514 246L108 243V305L459 308L428 266Q433 329 416.0 370.0Q399 411 367.5 432.0Q336 453 293 453Q247 453 212.0 429.0Q177 405 158.5 360.0Q140 315 140 251Q140 159 181.0 110.5Q222 62 302 62Q334 62 357.5 69.5Q381 77 397.5 90.5Q414 104 424.5 122.0Q435 140 441 161L521 142Q512 106 493.5 77.5Q475 49 447.5 29.0Q420 9 384.0 -2.0Q348 -13 301 -13Z" fill="#8B9BB0"/><path transform="matrix(0.026 0 0 -0.026 589.104 440)" d="M88 276Q56 276 40.0 290.0Q24 304 24 335Q24 365 40.0 379.0Q56 393 88 393Q121 393 137.5 379.0Q154 365 154 334Q154 276 88 276Z" fill="#8B9BB0"/><path transform="matrix(0.026 0 0 -0.026 600.284 440)" d="M356 -13Q284 -13 229.5 11.0Q175 35 137.5 80.0Q100 125 81.0 187.5Q62 250 62 328Q62 442 100.0 518.5Q138 595 205.0 634.0Q272 673 357 673Q424 673 478.0 650.0Q532 627 570.5 582.0Q609 537 630.0 472.5Q651 408 651 326Q651 249 631.5 186.5Q612 124 574.5 79.5Q537 35 482.5 11.0Q428 -13 356 -13ZM357 66Q421 66 465.5 96.5Q510 127 533.5 184.5Q557 242 557 324Q557 409 533.0 468.5Q509 528 464.0 560.0Q419 592 355 592Q294 592 249.0 561.0Q204 530 180.0 471.0Q156 412 156 326Q156 264 169.5 215.5Q183 167 208.5 133.5Q234 100 271.5 83.0Q309 66 357 66Z" fill="#8B9BB0"/><path transform="matrix(0.026 0 0 -0.026 618.822 440)" d="M365 -13Q294 -13 237.5 9.0Q181 31 142.0 74.0Q103 117 82.5 179.5Q62 242 62 322Q62 403 83.0 467.5Q104 532 143.0 578.0Q182 624 237.0 648.5Q292 673 360 673Q412 673 456.0 658.5Q500 644 532.5 616.5Q565 589 583.0 550.0Q601 511 602 463L515 441Q516 492 494.0 525.5Q472 559 436.0 576.0Q400 593 358 593Q319 593 282.5 577.5Q246 562 218.0 529.5Q190 497 173.5 446.5Q157 396 157 325Q157 234 183.5 178.0Q210 122 258.0 95.5Q306 69 369 69Q430 69 467.0 91.5Q504 114 522.0 154.5Q540 195 543 248L625 233Q624 183 609.0 138.0Q594 93 563.0 59.0Q532 25 483.0 6.0Q434 -13 365 -13Z" fill="#8B9BB0"/><path transform="matrix(0.026 0 0 -0.026 636.1379999999999 440)" d="M86 0V660H316Q366 660 407.5 652.0Q449 644 481.5 628.0Q514 612 536.5 589.0Q559 566 570.5 535.5Q582 505 582 468Q582 433 571.5 404.0Q561 375 540.0 353.0Q519 331 488.0 317.5Q457 304 416 299V286Q452 282 479.0 267.0Q506 252 525.0 223.5Q544 195 558 148L600 0H501L467 135Q458 176 436.5 201.0Q415 226 383.0 238.0Q351 250 308 250H178V0ZM178 325H308Q397 325 442.5 357.0Q488 389 488 455Q488 521 444.5 552.5Q401 584 310 584H178Z" fill="#8B9BB0"/><rect x="82" y="470" width="191" height="42" rx="21.0" fill="#34DD79"/><path transform="matrix(0.024 0 0 -0.024 100.0 499.16)" d="M274 -183Q188 -183 132.5 -169.5Q77 -156 51.0 -130.0Q25 -104 25 -65Q25 -19 61.5 10.0Q98 39 169 45V65Q115 65 86.0 76.5Q57 88 57 117Q57 145 85.5 167.0Q114 189 180 202V222Q118 226 83.0 262.0Q48 298 48 355Q48 405 76.0 444.5Q104 484 159.5 507.5Q215 531 296 531H562V421L397 444V421Q461 412 489.5 389.0Q518 366 518 325Q518 284 491.0 253.0Q464 222 414.5 204.5Q365 187 296 187Q283 187 268.0 188.0Q253 189 218 193Q199 179 188.5 168.5Q178 158 178 149Q178 142 185.5 137.0Q193 132 205.5 130.0Q218 128 231 128H381Q401 128 433.0 125.5Q465 123 497.0 110.0Q529 97 551.0 68.5Q573 40 573 -13Q573 -71 540.5 -109.0Q508 -147 441.5 -165.0Q375 -183 274 -183ZM290 -68Q351 -68 385.0 -61.5Q419 -55 433.5 -40.5Q448 -26 448 -4Q448 16 439.5 27.0Q431 38 417.5 42.5Q404 47 390.5 48.5Q377 50 367 50H241Q199 46 180.5 27.5Q162 9 162 -15Q162 -37 176.0 -48.0Q190 -59 218.5 -63.5Q247 -68 290 -68ZM288 262Q336 262 360.0 285.5Q384 309 384 347Q384 387 359.5 413.0Q335 439 288 439Q242 439 216.0 413.5Q190 388 190 348Q190 323 201.5 303.5Q213 284 235.0 273.0Q257 262 288 262Z" fill="#06251B"/><path transform="matrix(0.024 0 0 -0.024 114.424 499.16)" d="M66 0V525H210V0ZM139 604Q97 604 74.5 621.5Q52 639 52 673Q52 708 74.5 726.0Q97 744 139 744Q182 744 204.5 726.0Q227 708 227 673Q227 640 204.5 622.0Q182 604 139 604Z" fill="#06251B"/><path transform="matrix(0.024 0 0 -0.024 121.072 499.16)" d="M274 -183Q188 -183 132.5 -169.5Q77 -156 51.0 -130.0Q25 -104 25 -65Q25 -19 61.5 10.0Q98 39 169 45V65Q115 65 86.0 76.5Q57 88 57 117Q57 145 85.5 167.0Q114 189 180 202V222Q118 226 83.0 262.0Q48 298 48 355Q48 405 76.0 444.5Q104 484 159.5 507.5Q215 531 296 531H562V421L397 444V421Q461 412 489.5 389.0Q518 366 518 325Q518 284 491.0 253.0Q464 222 414.5 204.5Q365 187 296 187Q283 187 268.0 188.0Q253 189 218 193Q199 179 188.5 168.5Q178 158 178 149Q178 142 185.5 137.0Q193 132 205.5 130.0Q218 128 231 128H381Q401 128 433.0 125.5Q465 123 497.0 110.0Q529 97 551.0 68.5Q573 40 573 -13Q573 -71 540.5 -109.0Q508 -147 441.5 -165.0Q375 -183 274 -183ZM290 -68Q351 -68 385.0 -61.5Q419 -55 433.5 -40.5Q448 -26 448 -4Q448 16 439.5 27.0Q431 38 417.5 42.5Q404 47 390.5 48.5Q377 50 367 50H241Q199 46 180.5 27.5Q162 9 162 -15Q162 -37 176.0 -48.0Q190 -59 218.5 -63.5Q247 -68 290 -68ZM288 262Q336 262 360.0 285.5Q384 309 384 347Q384 387 359.5 413.0Q335 439 288 439Q242 439 216.0 413.5Q190 388 190 348Q190 323 201.5 303.5Q213 284 235.0 273.0Q257 262 288 262Z" fill="#06251B"/><path transform="matrix(0.024 0 0 -0.024 135.496 499.16)" d="M189 -14Q145 -14 111.0 3.5Q77 21 58.0 54.0Q39 87 39 136Q39 179 55.5 208.0Q72 237 104.0 255.0Q136 273 183.0 285.0Q230 297 290 306Q322 311 342.5 315.5Q363 320 373.0 330.5Q383 341 383 361Q383 389 363.0 409.0Q343 429 300 429Q271 429 246.5 419.0Q222 409 204.5 389.0Q187 369 179 338L52 377Q64 418 86.5 448.0Q109 478 141.0 498.5Q173 519 214.0 529.0Q255 539 303 539Q380 539 428.5 514.5Q477 490 501.0 438.5Q525 387 525 306V216Q525 181 526.5 145.0Q528 109 530.5 72.5Q533 36 536 0H409Q405 25 401.5 57.5Q398 90 396 123H378Q364 85 338.0 54.0Q312 23 274.5 4.5Q237 -14 189 -14ZM250 90Q269 90 288.5 97.0Q308 104 326.5 116.5Q345 129 360.5 148.0Q376 167 386 191L384 275L407 270Q389 257 365.0 249.5Q341 242 315.5 238.0Q290 234 265.0 229.0Q240 224 220.5 216.0Q201 208 189.5 194.5Q178 181 178 157Q178 126 198.0 108.0Q218 90 250 90Z" fill="#06251B"/><path transform="matrix(0.024 0 0 -0.024 149.536 499.16)" d="M30 201V331H322V201Z" fill="#06251B"/><path transform="matrix(0.024 0 0 -0.024 157.984 499.16)" d="M66 -168V258V525H185L186 379L204 378Q213 431 235.5 467.0Q258 503 294.0 521.0Q330 539 377 539Q447 539 497.0 504.5Q547 470 573.5 407.5Q600 345 600 260Q600 181 576.0 119.5Q552 58 504.5 22.0Q457 -14 386 -14Q336 -14 301.5 5.0Q267 24 244.5 58.5Q222 93 207 141H188Q194 114 199.0 86.0Q204 58 207.0 31.5Q210 5 210 -20V-168ZM336 101Q372 101 397.0 121.0Q422 141 435.5 177.0Q449 213 449 259Q449 309 435.0 344.5Q421 380 395.0 400.0Q369 420 333 420Q301 420 278.0 406.0Q255 392 239.5 369.0Q224 346 217.0 319.5Q210 293 210 269V250Q210 231 215.0 210.5Q220 190 231.0 170.5Q242 151 257.0 135.5Q272 120 292.0 110.5Q312 101 336 101Z" fill="#06251B"/><path transform="matrix(0.024 0 0 -0.024 173.296 499.16)" d="M257 -14Q191 -14 141.5 20.0Q92 54 65.0 116.0Q38 178 38 263Q38 343 62.0 405.0Q86 467 133.0 502.0Q180 537 250 537Q301 537 336.0 518.0Q371 499 393.5 462.5Q416 426 429 375H452Q445 407 439.5 437.5Q434 468 431.0 496.0Q428 524 428 545V715H572V258V0H452V152H432Q421 96 398.0 59.0Q375 22 339.5 4.0Q304 -14 257 -14ZM305 104Q338 104 361.0 118.0Q384 132 399.0 154.5Q414 177 421.0 203.5Q428 230 428 253V272Q428 291 422.5 311.5Q417 332 407.0 352.0Q397 372 382.0 387.5Q367 403 347.0 412.0Q327 421 303 421Q267 421 242.0 401.0Q217 381 203.0 345.5Q189 310 189 263Q189 215 203.5 179.0Q218 143 244.0 123.5Q270 104 305 104Z" fill="#06251B"/><path transform="matrix(0.024 0 0 -0.024 188.632 499.16)" d="M106 0V336H23V442L163 436V455Q128 463 105.5 480.5Q83 498 73.0 523.0Q63 548 63 576Q63 619 85.0 650.5Q107 682 147.0 699.5Q187 717 241 717Q287 717 324.5 705.5Q362 694 385 677L376 547Q352 564 322.0 575.0Q292 586 265 586Q235 586 215.5 570.0Q196 554 196 518Q196 493 206.5 478.5Q217 464 232.5 457.5Q248 451 263 449H383V336H246V0Z" fill="#06251B"/><path transform="matrix(0.024 0 0 -0.024 198.208 499.16)" d="M116 -13Q69 -13 45.5 7.0Q22 27 22 69Q22 112 45.5 132.0Q69 152 116 152Q164 152 187.5 132.0Q211 112 211 69Q211 -13 116 -13Z" fill="#06251B"/><path transform="matrix(0.024 0 0 -0.024 203.8 499.16)" d="M309 -14Q241 -14 190.0 6.0Q139 26 105.0 62.0Q71 98 54.0 147.5Q37 197 37 256Q37 318 54.5 369.5Q72 421 106.0 459.0Q140 497 190.0 518.0Q240 539 304 539Q368 539 415.5 518.0Q463 497 492.5 459.5Q522 422 533 371L400 328Q397 359 383.5 381.5Q370 404 347.5 415.5Q325 427 297 427Q268 427 247.0 415.5Q226 404 211.5 382.5Q197 361 189.5 330.5Q182 300 182 262Q182 208 196.5 170.5Q211 133 239.5 113.5Q268 94 310 94Q350 94 374.0 109.5Q398 125 409.5 149.5Q421 174 424 200L550 172Q545 133 528.5 99.0Q512 65 482.0 40.0Q452 15 409.5 0.5Q367 -14 309 -14Z" fill="#06251B"/><path transform="matrix(0.024 0 0 -0.024 217.38400000000001 499.16)" d="M304 -14Q225 -14 165.0 17.5Q105 49 71.0 110.5Q37 172 37 264Q37 356 71.5 417.0Q106 478 166.5 508.5Q227 539 304 539Q383 539 443.5 508.0Q504 477 538.5 415.5Q573 354 573 262Q573 169 537.5 107.5Q502 46 441.5 16.0Q381 -14 304 -14ZM309 93Q348 93 374.5 111.0Q401 129 414.5 165.5Q428 202 428 254Q428 309 413.5 347.5Q399 386 371.0 406.5Q343 427 300 427Q263 427 236.0 409.5Q209 392 195.0 355.5Q181 319 181 266Q181 181 215.0 137.0Q249 93 309 93Z" fill="#06251B"/><path transform="matrix(0.024 0 0 -0.024 232.0 499.16)" d="M66 0V336V525H181V368H200Q214 426 237.0 463.5Q260 501 292.5 520.0Q325 539 369 539Q416 539 447.0 518.0Q478 497 495.0 459.5Q512 422 517 368H533Q548 427 573.5 465.0Q599 503 634.5 521.0Q670 539 713 539Q756 539 788.5 522.0Q821 505 843.0 471.5Q865 438 876.0 387.5Q887 337 887 271V0H743V253Q743 307 734.0 343.5Q725 380 706.0 398.0Q687 416 657 416Q624 416 600.0 393.5Q576 371 562.0 332.0Q548 293 547 243V0H406V249Q406 305 396.0 341.5Q386 378 367.0 397.0Q348 416 319 416Q285 416 261.0 393.5Q237 371 224.0 331.0Q211 291 210 242V0Z" fill="#06251B"/><g transform="translate(740 150) scale(1.18)"><rect x="0" y="0" width="360" height="300" rx="18" fill="#0F1722" stroke="#243042" stroke-width="1.5"/><rect x="0" y="0" width="360" height="40" rx="18" fill="#131D2A"/><rect x="0" y="22" width="360" height="18" fill="#131D2A"/><circle cx="20" cy="20" r="4" fill="#3a4658"/><circle cx="36" cy="20" r="4" fill="#3a4658"/><circle cx="52" cy="20" r="4" fill="#3a4658"/><rect x="150" y="13" width="150" height="14" rx="7" fill="#1c2838"/><rect x="40" y="62" width="280" height="210" rx="8" fill="#FFFFFF"/><path d="M296 62 L320 86 L296 86 Z" fill="#E2E8F0"/><rect x="64" y="95" width="170" height="7" rx="3.5" fill="#9AA7B6"/><rect x="64" y="116" width="210" height="7" rx="3.5" fill="#9AA7B6"/><rect x="64" y="137" width="150" height="7" rx="3.5" fill="#9AA7B6"/><rect x="64" y="158" width="150" height="16" rx="3" fill="#BFEFF4"/><rect x="64" y="162" width="150" height="7" rx="3.5" fill="#5b6b7d"/><path d="M214 156 H228 M221 156 V178 M214 178 H228" fill="none" stroke="#11A877" stroke-width="3.4" stroke-linecap="round"/><rect x="64" y="192" width="210" height="7" rx="3.5" fill="#9AA7B6"/><rect x="64" y="213" width="120" height="7" rx="3.5" fill="#9AA7B6"/><circle cx="300" cy="250" r="20" fill="#11A877"/><path d="M291 250 l6 6 l12 -13" fill="none" stroke="#fff" stroke-width="3.6" stroke-linecap="round" stroke-linejoin="round"/></g></svg>